<?xml version="1.0" standalone="no"?><!DOCTYPE svg PUBLIC "-//W3C//DTD SVG 1.1//EN" "http://www.w3.org/Graphics/SVG/1.1/DTD/svg11.dtd"><svg xmlns="http://www.w3.org/2000/svg" version="1.1" width="1390.4" height="909.667" xmlns:xlink="http://www.w3.org/1999/xlink" xlink="http://www.w3.org/1999/xlink" style="position:relative;overflow:hidden;" viewBox="34.667 53.833 1390.4 909.667"><defs><filter id="9b4099c5-c5f2-4998-8ce8-b09ebd48e599" x="-0.5" y="-0.5" width="2" height="2"><feFlood flood-color="#000" flood-opacity="0.3" result="flood"/><feComposite in="flood" in2="SourceAlpha" operator="in" result="mask"/><feGaussianBlur in="mask" stdDeviation="2.5"/><feOffset dx="2.5" dy="2.5" result="oEffect0"/><feMerge><feMergeNode in="oEffect0"/><feMergeNode in="SourceGraphic"/></feMerge></filter><filter id="50de905b-2406-4c03-8937-7ec961b1dbab" x="-0.25" y="-0.5" width="1.5" height="2"><feFlood flood-color="#000" flood-opacity="0.3" result="flood"/><feComposite in="flood" in2="SourceAlpha" operator="in" result="mask"/><feGaussianBlur in="mask" stdDeviation="2.5"/><feOffset dx="2.5" dy="2.5" result="oEffect0"/><feMerge><feMergeNode in="oEffect0"/><feMergeNode in="SourceGraphic"/></feMerge></filter><filter id="a485d766-98ba-4879-8dd2-fe09544d64e6" x="-0.5" y="-0.5" width="2" height="2"><feGaussianBlur in="SourceAlpha" stdDeviation="5"/><feOffset dx="5" dy="5"/><feComposite in2="SourceAlpha" operator="arithmetic" k2="-1" k3="1" result="shadowdiff"/><feFlood flood-color="black" flood-opacity="1"/><feComposite in2="shadowdiff" operator="in"/><feComposite in2="SourceGraphic" operator="over" result="sourceEffect"/><feMerge><feMergeNode in="sourceEffect"/></feMerge></filter><filter id="1c9ee17c-d694-4084-823e-26da7c67b3e7" x="-0.5" y="-0.5" width="2" height="2"><feFlood flood-color="#000" flood-opacity="0.3" result="flood"/><feComposite in="flood" in2="SourceAlpha" operator="in" result="mask"/><feGaussianBlur in="mask" stdDeviation="2"/><feOffset dx="0.1" dy="0.1" result="oEffect0"/><feMerge><feMergeNode in="oEffect0"/><feMergeNode in="SourceGraphic"/></feMerge></filter><filter id="9600650a-d989-4948-83d7-7300bef27d11" x="-0.5" y="-0.5" width="2" height="2"><feMerge><feMergeNode in="SourceGraphic"/></feMerge></filter></defs><g><g width="463.333" height="196.333" transform="scale(1,1) translate(640.167,749.667)"><g stroke="#7F7F7F" stroke-opacity="1" stroke-width="1" stroke-dasharray="none" width="463.333" height="196.333" transform="scale(1,1) translate(0,0)" fill="url(#6a908455-f3ab-45af-8d65-8de41a4a9307)" filter="url(#9b4099c5-c5f2-4998-8ce8-b09ebd48e599)"><linearGradient id="6a908455-f3ab-45af-8d65-8de41a4a9307" x1="231.6665" y1="0" x2="231.6665" y2="196.333" gradientUnits="userSpaceOnUse"><stop offset="0%" style="stop-color:#CCC1D9;stop-opacity:1;"/><stop offset="100%" style="stop-color:#98A9D9;stop-opacity:1;"/></linearGradient><rect width="463.333" height="196.333"/></g><g width="458.33333333333337" height="191.33333333333331" transform="scale(1,1) translate(2.5,2.5)"><text width="458.33333333333337" height="152.08334350585938" transform="scale(1,1) translate(0,19.62499491373697)" xml:space="preserve"><tspan xml:space="preserve" text-rendering="optimizeSpeed" style="font-family: Verdana, Geneva, sans-serif;" font-size="22.22222222222222" font-weight="bold" font-style="normal" text-decoration="underline" fill="#000000" opacity="1" x="127.943" text-anchor="start" y="21.875" textLength="202.44793701171875">Configuration of</tspan><tspan xml:space="preserve" text-rendering="optimizeSpeed" style="font-family: Verdana, Geneva, sans-serif;" font-size="22.22222222222222" font-weight="bold" font-style="normal" text-decoration="underline" fill="#000000" opacity="1" x="149.878" text-anchor="start" y="47.917" textLength="158.57640075683594"> instruments</tspan></text><g width="458.33333333333337" height="152.08334350585938" transform="scale(1,1) translate(0,19.62499491373697)"><path d="M127.943,23.875h202.448" stroke-width="1" stroke="#000000" fill="none"/><path d="M149.878,49.917h158.576" stroke-width="1" stroke="#000000" fill="none"/></g></g></g><g width="296.667" height="392.178" transform="scale(1,1) translate(1076.5,173.161)"><g stroke="#7F7F7F" stroke-opacity="1" stroke-width="1" stroke-dasharray="none" width="296.667" height="392.178" transform="scale(1,1) translate(0,0)" fill="url(#674a2566-2aed-4461-80c6-bd73b72dec78)" filter="url(#9b4099c5-c5f2-4998-8ce8-b09ebd48e599)"><linearGradient id="674a2566-2aed-4461-80c6-bd73b72dec78" x1="148.3335" y1="0" x2="148.3335" y2="392.178" gradientUnits="userSpaceOnUse"><stop offset="0%" style="stop-color:#EDF0C9;stop-opacity:1;"/><stop offset="100%" style="stop-color:#98A9D9;stop-opacity:1;"/></linearGradient><rect width="296.667" height="392.178"/></g><g width="291.66666666666663" height="387.1780515117581" transform="scale(1,1) translate(2.5,2.5)"><text width="291.66666666666663" height="336.4583549499512" transform="scale(1,1) translate(0,25.359848280903464)" xml:space="preserve"><tspan xml:space="preserve" text-rendering="optimizeSpeed" style="font-family: Verdana, Geneva, sans-serif;" font-size="19.444444444444443" font-weight="bold" font-style="normal" text-decoration="underline" fill="#000000" opacity="1" x="75.339" text-anchor="start" y="19.792" textLength="140.98959350585938">User support</tspan></text><g width="291.66666666666663" height="336.4583549499512" transform="scale(1,1) translate(0,25.359848280903464)"><path d="M75.339,21.792h140.99" stroke-width="1" stroke="#000000" fill="none"/></g></g></g><g width="287.5" height="316" transform="scale(1,1) translate(97.333,243.333)"><g stroke="#7F7F7F" stroke-opacity="1" stroke-width="1" stroke-dasharray="none" width="287.5" height="316" transform="scale(1,1) translate(0,0)" fill="url(#8df970d5-3515-4dae-8383-b892a3ba609d)" filter="url(#9b4099c5-c5f2-4998-8ce8-b09ebd48e599)"><linearGradient id="8df970d5-3515-4dae-8383-b892a3ba609d" x1="143.75" y1="0" x2="143.75" y2="316" gradientUnits="userSpaceOnUse"><stop offset="0%" style="stop-color:#F79646;stop-opacity:1;"/><stop offset="100%" style="stop-color:#98A9D9;stop-opacity:1;"/></linearGradient><rect width="287.5" height="316"/></g><g width="282.5" height="311" transform="scale(1,1) translate(2.5,2.5)"><text width="282.5" height="223.9583511352539" transform="scale(1,1) translate(0,43.52082443237305)" xml:space="preserve"><tspan xml:space="preserve" text-rendering="optimizeSpeed" style="font-family: Verdana, Geneva, sans-serif;" font-size="19.444444444444443" font-weight="bold" font-style="normal" text-decoration="underline" fill="#000000" opacity="1" x="22.639" text-anchor="start" y="19.792" textLength="237.22222900390625">Program experiments</tspan></text><g width="282.5" height="223.9583511352539" transform="scale(1,1) translate(0,43.52082443237305)"><path d="M22.639,21.792h237.222" stroke-width="1" stroke="#000000" fill="none"/></g></g></g><g width="515.333" height="161.5" transform="scale(1,1) translate(471.667,391.667)"><g stroke="#7F7F7F" stroke-opacity="1" stroke-width="6" stroke-dasharray="none" width="515.333" height="161.5" transform="scale(1,1) translate(0,0)" fill="url(#6a597fa6-35e6-465b-8558-b78111af1c4f)" filter="url(#9600650a-d989-4948-83d7-7300bef27d11)"><linearGradient id="6a597fa6-35e6-465b-8558-b78111af1c4f" x1="257.6665" y1="0" x2="257.6665" y2="161.5" gradientUnits="userSpaceOnUse"><stop offset="0%" style="stop-color:#FFFFFF;stop-opacity:1;"/><stop offset="100%" style="stop-color:#CCD2F0;stop-opacity:1;"/></linearGradient><rect width="515.333" height="161.5"/></g><g width="505.3333333333333" height="151.5" transform="scale(1,1) translate(5,5)"><text width="505.3333333333333" height="94.79167556762695" transform="scale(1,1) translate(0,28.354162216186523)" xml:space="preserve"><tspan xml:space="preserve" text-rendering="optimizeSpeed" style="font-family: Verdana, Geneva, sans-serif;" font-size="22.22222222222222" font-weight="bold" font-style="normal" text-decoration="underline" fill="#000000" opacity="1" x="108.743" text-anchor="start" y="21.875" textLength="287.84722900390625">Menu and environment</tspan></text><g width="505.3333333333333" height="94.79167556762695" transform="scale(1,1) translate(0,28.354162216186523)"><path d="M108.743,23.875h287.847" stroke-width="1" stroke="#000000" fill="none"/></g></g></g><g width="150.847" height="75" transform="scale(1,1) translate(145.327,358.417)"><g stroke="#7F7F7F" stroke-opacity="1" stroke-width="1" stroke-dasharray="none" width="150.847" height="75" transform="scale(1,1) translate(0,0)" fill="url(#cdd1baa5-395b-49b1-8d10-44b4d70149a0)" filter="url(#9b4099c5-c5f2-4998-8ce8-b09ebd48e599)"><linearGradient id="cdd1baa5-395b-49b1-8d10-44b4d70149a0" x1="75.4235" y1="0" x2="75.4235" y2="75" gradientUnits="userSpaceOnUse"><stop offset="0%" style="stop-color:#F79646;stop-opacity:1;"/><stop offset="100%" style="stop-color:#98A9D9;stop-opacity:1;"/></linearGradient><rect width="150.847" height="75"/></g><g width="145.84650112866817" height="70" transform="scale(1,1) translate(2.5,2.5)"><text width="145.84650112866817" height="19.791667938232422" transform="scale(1,1) translate(0,25.10416603088379)" xml:space="preserve"><tspan xml:space="preserve" text-rendering="optimizeSpeed" style="font-family: Verdana, Geneva, sans-serif;" font-size="16.666666666666668" font-weight="bold" font-style="normal" text-decoration="none" fill="#000000" opacity="1" x="26.248" text-anchor="start" y="16.667" textLength="93.35070037841797">Excitation</tspan></text></g></g><g width="152" height="76" transform="scale(1,1) translate(147.667,463.833)"><g stroke="#7F7F7F" stroke-opacity="1" stroke-width="1" stroke-dasharray="none" width="152" height="76" transform="scale(1,1) translate(0,0)" fill="url(#14b35e56-7aed-433a-8980-33630f2e18ec)" filter="url(#9b4099c5-c5f2-4998-8ce8-b09ebd48e599)"><linearGradient id="14b35e56-7aed-433a-8980-33630f2e18ec" x1="76" y1="0" x2="76" y2="76" gradientUnits="userSpaceOnUse"><stop offset="0%" style="stop-color:#F79646;stop-opacity:1;"/><stop offset="100%" style="stop-color:#98A9D9;stop-opacity:1;"/></linearGradient><rect width="152" height="76"/></g><g width="147" height="71" transform="scale(1,1) translate(2.5,2.5)"><text width="147" height="19.791667938232422" transform="scale(1,1) translate(0,25.60416603088379)" xml:space="preserve"><tspan xml:space="preserve" text-rendering="optimizeSpeed" style="font-family: Verdana, Geneva, sans-serif;" font-size="16.666666666666668" font-weight="bold" font-style="normal" text-decoration="none" fill="#000000" opacity="1" x="44.568" text-anchor="start" y="16.667" textLength="57.864585876464844">Series</tspan></text></g></g><g width="177.333" height="103.333" transform="scale(1,1) translate(146.167,653.667)"><g stroke="#7F7F7F" stroke-opacity="1" stroke-width="1" stroke-dasharray="none" width="177.333" height="103.333" transform="scale(1,1) translate(0,0)" fill="url(#4cef3081-c47b-4e2a-841b-9cab58a969a9)" filter="url(#9b4099c5-c5f2-4998-8ce8-b09ebd48e599)"><linearGradient id="4cef3081-c47b-4e2a-841b-9cab58a969a9" x1="88.6665" y1="0" x2="88.6665" y2="103.333" gradientUnits="userSpaceOnUse"><stop offset="0%" style="stop-color:#FBD585;stop-opacity:1;"/><stop offset="100%" style="stop-color:#98A9D9;stop-opacity:1;"/></linearGradient><rect width="177.333" height="103.333"/></g><g width="172.33333333333331" height="98.33333333333333" transform="scale(1,1) translate(2.5,2.5)"><text width="172.33333333333331" height="47.91667175292969" transform="scale(1,1) translate(0,25.20833079020182)" xml:space="preserve"><tspan xml:space="preserve" text-rendering="optimizeSpeed" style="font-family: Verdana, Geneva, sans-serif;" font-size="19.444444444444443" font-weight="bold" font-style="normal" text-decoration="underline" fill="#000000" opacity="1" x="38.337" text-anchor="start" y="19.792" textLength="89.01042175292969">Conduct</tspan><tspan xml:space="preserve" text-rendering="optimizeSpeed" style="font-family: Verdana, Geneva, sans-serif;" font-size="19.444444444444443" font-weight="bold" font-style="normal" text-decoration="underline" fill="#000000" opacity="1" x="23.693" text-anchor="start" y="43.75" textLength="124.94793701171875">experiment</tspan></text><g width="172.33333333333331" height="47.91667175292969" transform="scale(1,1) translate(0,25.20833079020182)"><path d="M38.337,21.792h95.66" stroke-width="1" stroke="#000000" fill="none"/><path d="M23.693,45.75h124.948" stroke-width="1" stroke="#000000" fill="none"/></g></g></g><g width="178.687" height="103.167" transform="scale(1,1) translate(376.823,650.083)"><g stroke="#7F7F7F" stroke-opacity="1" stroke-width="1" stroke-dasharray="none" width="178.687" height="103.167" transform="scale(1,1) translate(0,0)" fill="url(#3039c20c-92c1-4845-8eb0-a6ea2a1794c8)" filter="url(#9b4099c5-c5f2-4998-8ce8-b09ebd48e599)"><linearGradient id="3039c20c-92c1-4845-8eb0-a6ea2a1794c8" x1="89.3435" y1="0" x2="89.3435" y2="103.167" gradientUnits="userSpaceOnUse"><stop offset="0%" style="stop-color:#FBD585;stop-opacity:1;"/><stop offset="100%" style="stop-color:#98A9D9;stop-opacity:1;"/></linearGradient><rect width="178.687" height="103.167"/></g><g width="173.68736383442263" height="98.16666666666666" transform="scale(1,1) translate(2.5,2.5)"><text width="173.68736383442263" height="47.91667175292969" transform="scale(1,1) translate(0,25.124997456868485)" xml:space="preserve"><tspan xml:space="preserve" text-rendering="optimizeSpeed" style="font-family: Verdana, Geneva, sans-serif;" font-size="19.444444444444443" font-weight="bold" font-style="normal" text-decoration="underline" fill="#000000" opacity="1" x="40.637" text-anchor="start" y="19.792" textLength="85.7638931274414">Analyze</tspan><tspan xml:space="preserve" text-rendering="optimizeSpeed" style="font-family: Verdana, Geneva, sans-serif;" font-size="19.444444444444443" font-weight="bold" font-style="normal" text-decoration="underline" fill="#000000" opacity="1" x="24.37" text-anchor="start" y="43.75" textLength="124.94792938232422">experiment</tspan></text><g width="173.68736383442263" height="47.91667175292969" transform="scale(1,1) translate(0,25.124997456868485)"><path d="M40.637,21.792h92.413" stroke-width="1" stroke="#000000" fill="none"/><path d="M24.37,45.75h124.948" stroke-width="1" stroke="#000000" fill="none"/></g></g></g><g width="553.5" height="173.833" transform="scale(1,1) translate(423.167,66.333)"><g stroke="#7F7F7F" stroke-opacity="1" stroke-width="1" stroke-dasharray="none" width="553.5" height="173.833" transform="scale(1,1) translate(0,0)" fill="url(#e675dc25-7ece-4eaa-8d33-25c56d3d9c6a)" filter="url(#50de905b-2406-4c03-8937-7ec961b1dbab)"><linearGradient id="e675dc25-7ece-4eaa-8d33-25c56d3d9c6a" x1="276.75" y1="0" x2="276.75" y2="173.833" gradientUnits="userSpaceOnUse"><stop offset="0%" style="stop-color:#B7DDE8;stop-opacity:1;"/><stop offset="100%" style="stop-color:#98A9D9;stop-opacity:1;"/></linearGradient><rect width="553.5" height="173.833"/></g><g width="548.5" height="168.83333333333331" transform="scale(1,1) translate(2.5,2.5)"><text width="548.5" height="47.91667175292969" transform="scale(1,1) translate(0,60.45833079020181)" xml:space="preserve"><tspan xml:space="preserve" text-rendering="optimizeSpeed" style="font-family: Verdana, Geneva, sans-serif;" font-size="19.444444444444443" font-weight="bold" font-style="normal" text-decoration="underline" fill="#000000" opacity="1" x="237.271" text-anchor="start" y="19.792" textLength="73.95833587646484">Access</tspan><tspan xml:space="preserve" text-rendering="optimizeSpeed" style="font-family: Verdana, Geneva, sans-serif;" font-size="19.444444444444443" font-weight="bold" font-style="normal" text-decoration="underline" fill="#000000" opacity="1" x="202.696" text-anchor="start" y="43.75" textLength="143.10765075683594">management</tspan></text><g width="548.5" height="47.91667175292969" transform="scale(1,1) translate(0,60.45833079020181)"><path d="M237.271,21.792h73.958" stroke-width="1" stroke="#000000" fill="none"/><path d="M202.696,45.75h143.108" stroke-width="1" stroke="#000000" fill="none"/></g></g></g><g width="150" height="75" transform="scale(1,1) translate(813,101.667)"><g stroke="#7F7F7F" stroke-opacity="1" stroke-width="1" stroke-dasharray="none" width="150" height="75" transform="scale(1,1) translate(0,0)" fill="url(#f92720d3-9b82-4ccf-8040-77f89ae459b1)" filter="url(#9b4099c5-c5f2-4998-8ce8-b09ebd48e599)"><linearGradient id="f92720d3-9b82-4ccf-8040-77f89ae459b1" x1="75" y1="0" x2="75" y2="75" gradientUnits="userSpaceOnUse"><stop offset="0%" style="stop-color:#B7DDE8;stop-opacity:1;"/><stop offset="100%" style="stop-color:#98A9D9;stop-opacity:1;"/></linearGradient><rect width="150" height="75"/></g><g width="145" height="70" transform="scale(1,1) translate(2.5,2.5)"><text width="145" height="39.583335876464844" transform="scale(1,1) translate(0,15.208332061767578)" xml:space="preserve"><tspan xml:space="preserve" text-rendering="optimizeSpeed" style="font-family: Verdana, Geneva, sans-serif;" font-size="16.666666666666668" font-weight="bold" font-style="normal" text-decoration="none" fill="#000000" opacity="1" x="6.675" text-anchor="start" y="16.667" textLength="125.95487213134766">Show current</tspan><tspan xml:space="preserve" text-rendering="optimizeSpeed" style="font-family: Verdana, Geneva, sans-serif;" font-size="16.666666666666668" font-weight="bold" font-style="normal" text-decoration="none" fill="#000000" opacity="1" x="51.936" text-anchor="start" y="36.458" textLength="41.12846374511719">user</tspan></text></g></g><g width="151.333" height="61.167" transform="scale(1,1) translate(797.333,472.667)"><g stroke="#7F7F7F" stroke-opacity="1" stroke-width="1" stroke-dasharray="none" width="151.333" height="61.167" transform="scale(1,1) translate(0,0)" fill="url(#bf265d24-7a25-47a4-8385-7744775ed8b5)" filter="url(#9b4099c5-c5f2-4998-8ce8-b09ebd48e599)"><linearGradient id="bf265d24-7a25-47a4-8385-7744775ed8b5" x1="75.6665" y1="0" x2="75.6665" y2="61.167" gradientUnits="userSpaceOnUse"><stop offset="0%" style="stop-color:#EDF0C9;stop-opacity:1;"/><stop offset="100%" style="stop-color:#98A9D9;stop-opacity:1;"/></linearGradient><rect width="151.333" height="61.167"/></g><g width="146.33333333333331" height="56.166666666666664" transform="scale(1,1) translate(2.5,2.5)"><text width="146.33333333333331" height="19.791667938232422" transform="scale(1,1) translate(0,18.18749936421712)" xml:space="preserve"><tspan xml:space="preserve" text-rendering="optimizeSpeed" style="font-family: Verdana, Geneva, sans-serif;" font-size="16.666666666666668" font-weight="bold" font-style="normal" text-decoration="none" fill="#000000" opacity="1" x="9.347" text-anchor="start" y="16.667" textLength="127.63890075683594">Configuration</tspan></text></g></g><g width="150.333" height="75.167" transform="scale(1,1) translate(1138.167,354)"><g stroke="#7F7F7F" stroke-opacity="1" stroke-width="1" stroke-dasharray="none" width="150.333" height="75.167" transform="scale(1,1) translate(0,0)" fill="url(#d879ee33-2bb9-4355-8b49-ed489ee7e3c2)" filter="url(#9b4099c5-c5f2-4998-8ce8-b09ebd48e599)"><linearGradient id="d879ee33-2bb9-4355-8b49-ed489ee7e3c2" x1="75.1665" y1="0" x2="75.1665" y2="75.167" gradientUnits="userSpaceOnUse"><stop offset="0%" style="stop-color:#EDF0C9;stop-opacity:1;"/><stop offset="100%" style="stop-color:#98A9D9;stop-opacity:1;"/></linearGradient><rect width="150.333" height="75.167"/></g><g width="145.33333333333331" height="70.16666666666666" transform="scale(1,1) translate(2.5,2.5)"><text width="145.33333333333331" height="39.583335876464844" transform="scale(1,1) translate(0,15.291665395100907)" xml:space="preserve"><tspan xml:space="preserve" text-rendering="optimizeSpeed" style="font-family: Verdana, Geneva, sans-serif;" font-size="16.666666666666668" font-weight="bold" font-style="normal" text-decoration="none" fill="#000000" opacity="1" x="27.953" text-anchor="start" y="16.667" textLength="83.7326431274414">Visualize</tspan><tspan xml:space="preserve" text-rendering="optimizeSpeed" style="font-family: Verdana, Geneva, sans-serif;" font-size="16.666666666666668" font-weight="bold" font-style="normal" text-decoration="none" fill="#000000" opacity="1" x="23.925" text-anchor="start" y="36.458" textLength="97.48263549804688">laboratory</tspan></text></g></g><g width="150.333" height="75.167" transform="scale(1,1) translate(663.833,849.5)"><g stroke="#7F7F7F" stroke-opacity="1" stroke-width="1" stroke-dasharray="none" width="150.333" height="75.167" transform="scale(1,1) translate(0,0)" fill="url(#d3612f7d-4f80-4303-8c2e-5e84f4192f28)" filter="url(#9b4099c5-c5f2-4998-8ce8-b09ebd48e599)"><linearGradient id="d3612f7d-4f80-4303-8c2e-5e84f4192f28" x1="75.1665" y1="0" x2="75.1665" y2="75.167" gradientUnits="userSpaceOnUse"><stop offset="0%" style="stop-color:#CCC1D9;stop-opacity:1;"/><stop offset="100%" style="stop-color:#98A9D9;stop-opacity:1;"/></linearGradient><rect width="150.333" height="75.167"/></g><g width="145.33333333333331" height="70.16666666666666" transform="scale(1,1) translate(2.5,2.5)"><text width="145.33333333333331" height="39.583335876464844" transform="scale(1,1) translate(0,15.291665395100907)" xml:space="preserve"><tspan xml:space="preserve" text-rendering="optimizeSpeed" style="font-family: Verdana, Geneva, sans-serif;" font-size="16.666666666666668" font-weight="bold" font-style="normal" text-decoration="none" fill="#000000" opacity="1" x="44.437" text-anchor="start" y="16.667" textLength="50.763893127441406">Pulse</tspan><tspan xml:space="preserve" text-rendering="optimizeSpeed" style="font-family: Verdana, Geneva, sans-serif;" font-size="16.666666666666668" font-weight="bold" font-style="normal" text-decoration="none" fill="#000000" opacity="1" x="26.469" text-anchor="start" y="36.458" textLength="92.39583587646484">generator</tspan></text></g></g><g width="150" height="75" transform="scale(1,1) translate(927.333,848)"><g stroke="#7F7F7F" stroke-opacity="1" stroke-width="1" stroke-dasharray="none" width="150" height="75" transform="scale(1,1) translate(0,0)" fill="url(#08270f66-10e7-40de-8b11-5b406b1fd2f2)" filter="url(#9b4099c5-c5f2-4998-8ce8-b09ebd48e599)"><linearGradient id="08270f66-10e7-40de-8b11-5b406b1fd2f2" x1="75" y1="0" x2="75" y2="75" gradientUnits="userSpaceOnUse"><stop offset="0%" style="stop-color:#CCC1D9;stop-opacity:1;"/><stop offset="100%" style="stop-color:#98A9D9;stop-opacity:1;"/></linearGradient><rect width="150" height="75"/></g><g width="145" height="70" transform="scale(1,1) translate(2.5,2.5)"><text width="145" height="39.583335876464844" transform="scale(1,1) translate(0,15.208332061767578)" xml:space="preserve"><tspan xml:space="preserve" text-rendering="optimizeSpeed" style="font-family: Verdana, Geneva, sans-serif;" font-size="16.666666666666668" font-weight="bold" font-style="normal" text-decoration="none" fill="#000000" opacity="1" x="43.359" text-anchor="start" y="16.667" textLength="52.58681106567383">Delay</tspan><tspan xml:space="preserve" text-rendering="optimizeSpeed" style="font-family: Verdana, Geneva, sans-serif;" font-size="16.666666666666668" font-weight="bold" font-style="normal" text-decoration="none" fill="#000000" opacity="1" x="26.302" text-anchor="start" y="36.458" textLength="92.39583969116211">generator</tspan></text></g></g><g width="150" height="75" transform="scale(1,1) translate(449.167,101.667)"><g stroke="#7F7F7F" stroke-opacity="1" stroke-width="1" stroke-dasharray="none" width="150" height="75" transform="scale(1,1) translate(0,0)" fill="url(#e0efcec4-271e-4489-896c-a05f1302f4cb)" filter="url(#9b4099c5-c5f2-4998-8ce8-b09ebd48e599)"><linearGradient id="e0efcec4-271e-4489-896c-a05f1302f4cb" x1="75" y1="0" x2="75" y2="75" gradientUnits="userSpaceOnUse"><stop offset="0%" style="stop-color:#B7DDE8;stop-opacity:1;"/><stop offset="100%" style="stop-color:#98A9D9;stop-opacity:1;"/></linearGradient><rect width="150" height="75"/></g><g width="145" height="70" transform="scale(1,1) translate(2.5,2.5)"><text width="145" height="39.583335876464844" transform="scale(1,1) translate(0,15.208332061767578)" xml:space="preserve"><tspan xml:space="preserve" text-rendering="optimizeSpeed" style="font-family: Verdana, Geneva, sans-serif;" font-size="16.666666666666668" font-weight="bold" font-style="normal" text-decoration="none" fill="#000000" opacity="1" x="40.79" text-anchor="start" y="16.667" textLength="63.420143127441406">Access</tspan><tspan xml:space="preserve" text-rendering="optimizeSpeed" style="font-family: Verdana, Geneva, sans-serif;" font-size="16.666666666666668" font-weight="bold" font-style="normal" text-decoration="none" fill="#000000" opacity="1" x="39.436" text-anchor="start" y="36.458" textLength="66.12847900390625">control</tspan></text></g></g><g width="150.333" height="75.167" transform="scale(1,1) translate(1138.167,456.5)"><g stroke="#7F7F7F" stroke-opacity="1" stroke-width="1" stroke-dasharray="none" width="150.333" height="75.167" transform="scale(1,1) translate(0,0)" fill="url(#0457ce6f-27b1-4abb-89f9-01df3d39e6fc)" filter="url(#9b4099c5-c5f2-4998-8ce8-b09ebd48e599)"><linearGradient id="0457ce6f-27b1-4abb-89f9-01df3d39e6fc" x1="75.1665" y1="0" x2="75.1665" y2="75.167" gradientUnits="userSpaceOnUse"><stop offset="0%" style="stop-color:#EDF0C9;stop-opacity:1;"/><stop offset="100%" style="stop-color:#98A9D9;stop-opacity:1;"/></linearGradient><rect width="150.333" height="75.167"/></g><g width="145.33333333333331" height="70.16666666666666" transform="scale(1,1) translate(2.5,2.5)"><text width="145.33333333333331" height="19.791667938232422" transform="scale(1,1) translate(0,25.187499364217118)" xml:space="preserve"><tspan xml:space="preserve" text-rendering="optimizeSpeed" style="font-family: Verdana, Geneva, sans-serif;" font-size="16.666666666666668" font-weight="bold" font-style="normal" text-decoration="none" fill="#000000" opacity="1" x="51.477" text-anchor="start" y="16.667" textLength="42.378475189208984">Help</tspan></text></g></g><g width="180.87" height="5.385" transform="scale(1,1) translate(296.173,395.917)"><g transform="scale(1,1) translate(0,0)" fill="#B97034" stroke="#B97034" stroke-opacity="1" filter="url(#1c9ee17c-d694-4084-823e-26da7c67b3e7)"><path d="M 10 0 L 25 0 L 25 5.385 L 170.87 5.385" fill="none" stroke-width="1" stroke-dasharray="none"/><g><g stroke-dasharray="none"><path d="M10,5L0,0L10,-5z" stroke="none" fill-opacity="1"/></g><g stroke-dasharray="none"><path d="M170.87,0.385L180.87,5.385L170.87,10.385z" stroke="none" fill-opacity="1"/></g></g></g></g><g width="313.89" height="104.215" transform="scale(1,1) translate(234.833,549.451)"><g transform="scale(1,1) translate(0,0)" fill="#B97034" stroke="#B97034" stroke-opacity="1" filter="url(#1c9ee17c-d694-4084-823e-26da7c67b3e7)"><path d="M 0 94.215 L 0 74.215 L 313.89 74.215 L 313.89 10" fill="none" stroke-width="1" stroke-dasharray="none"/><g><g stroke-dasharray="none"><path d="M5,94.215L0,104.215L-5,94.215z" stroke="none" fill-opacity="1"/></g><g stroke-dasharray="none"><path d="M308.89,10L313.89,0L318.89,10z" stroke="none" fill-opacity="1"/></g></g></g></g><g width="148.393" height="222.717" transform="scale(1,1) translate(524.167,176.667)"><g transform="scale(1,1) translate(0,0)" fill="#B97034" stroke="#B97034" stroke-opacity="1" filter="url(#1c9ee17c-d694-4084-823e-26da7c67b3e7)"><path d="M 0 0 L 0 114 L 148.393 114 L 148.393 212.717" fill="none" stroke-width="1" stroke-dasharray="none"/><g><g stroke-dasharray="none"><path d="M153.393,212.717L148.393,222.717L143.393,212.717z" stroke="none" fill-opacity="1"/></g></g></g></g><g width="27.87" height="159.217" transform="scale(1,1) translate(699.833,240.167)"><g transform="scale(1,1) translate(0,0)" fill="#B97034" stroke="#B97034" stroke-opacity="1" filter="url(#1c9ee17c-d694-4084-823e-26da7c67b3e7)"><path d="M 0 10 L 0 57.667 L 27.87 57.667 L 27.87 149.217" fill="none" stroke-width="1" stroke-dasharray="none"/><g><g stroke-dasharray="none"><path d="M-5,10L0,0L5,10z" stroke="none" fill-opacity="1"/></g><g stroke-dasharray="none"><path d="M32.87,149.217L27.87,159.217L22.87,149.217z" stroke="none" fill-opacity="1"/></g></g></g></g><g width="174.525" height="47.196" transform="scale(1,1) translate(299.667,454.638)"><g transform="scale(1,1) translate(0,0)" fill="#B97034" stroke="#B97034" stroke-opacity="1" filter="url(#1c9ee17c-d694-4084-823e-26da7c67b3e7)"><path d="M 10 47.196 L 47.167 47.196 L 47.167 0 L 164.525 0" fill="none" stroke-width="1" stroke-dasharray="none"/><g><g stroke-dasharray="none"><path d="M10,52.196L0,47.196L10,42.196z" stroke="none" fill-opacity="1"/></g><g stroke-dasharray="none"><path d="M164.525,-5L174.525,0L164.525,5z" stroke="none" fill-opacity="1"/></g></g></g></g><g width="95.407" height="222.717" transform="scale(1,1) translate(792.593,176.667)"><g transform="scale(1,1) translate(0,0)" fill="#B97034" stroke="#B97034" stroke-opacity="1" filter="url(#1c9ee17c-d694-4084-823e-26da7c67b3e7)"><path d="M 0 212.717 L 0 126.884 L 95.407 126.884 L 95.407 10" fill="none" stroke-width="1" stroke-dasharray="none"/><g><g stroke-dasharray="none"><path d="M5,212.717L0,222.717L-5,212.717z" stroke="none" fill-opacity="1"/></g><g stroke-dasharray="none"><path d="M90.407,10L95.407,0L100.407,10z" stroke="none" fill-opacity="1"/></g></g></g></g><g width="85.895" height="155.056" transform="scale(1,1) translate(555.51,546.611)"><g transform="scale(1,1) translate(0,0)" fill="#B97034" stroke="#B97034" stroke-opacity="1" filter="url(#1c9ee17c-d694-4084-823e-26da7c67b3e7)"><path d="M 10 155.056 L 85.895 155.056 L 85.895 10" fill="none" stroke-width="1" stroke-dasharray="none"/><g><g stroke-dasharray="none"><path d="M10,160.056L0,155.056L10,150.056z" stroke="none" fill-opacity="1"/></g><g stroke-dasharray="none"><path d="M80.895,10L85.895,0L90.895,10z" stroke="none" fill-opacity="1"/></g></g></g></g><g width="125.232" height="300.049" transform="scale(1,1) translate(701.333,549.451)"><g transform="scale(1,1) translate(0,0)" fill="#B97034" stroke="#B97034" stroke-opacity="1" filter="url(#1c9ee17c-d694-4084-823e-26da7c67b3e7)"><path d="M 0 290.049 L 0 147.549 L 125.232 147.549 L 125.232 10" fill="none" stroke-width="1" stroke-dasharray="none"/><g><g stroke-dasharray="none"><path d="M5,290.049L0,300.049L-5,290.049z" stroke="none" fill-opacity="1"/></g><g stroke-dasharray="none"><path d="M120.232,10L125.232,0L130.232,10z" stroke="none" fill-opacity="1"/></g></g></g></g><g width="150.347" height="1" transform="scale(1,1) translate(987.82,493.274)"><g transform="scale(1,1) translate(0,0)" fill="#B97034" stroke="#B97034" stroke-opacity="1" filter="url(#1c9ee17c-d694-4084-823e-26da7c67b3e7)"><path d="M 10 0 L 140.347 0" fill="none" stroke-width="1" stroke-dasharray="none"/><g><g stroke-dasharray="none"><path d="M10,5L0,0L10,-5z" stroke="none" fill-opacity="1"/></g><g stroke-dasharray="none"><path d="M140.347,-5L150.347,0L140.347,5z" stroke="none" fill-opacity="1"/></g></g></g></g><g width="153.454" height="57.208" transform="scale(1,1) translate(984.713,391.5)"><g transform="scale(1,1) translate(0,0)" fill="#B97034" stroke="#B97034" stroke-opacity="1" filter="url(#1c9ee17c-d694-4084-823e-26da7c67b3e7)"><path d="M 10 57.208 L 113.667 57.208 L 113.667 0 L 143.454 0" fill="none" stroke-width="1" stroke-dasharray="none"/><g><g stroke-dasharray="none"><path d="M10,62.208L0,57.208L10,52.208z" stroke="none" fill-opacity="1"/></g><g stroke-dasharray="none"><path d="M143.454,-5L153.454,0L143.454,5z" stroke="none" fill-opacity="1"/></g></g></g></g><g width="132.76" height="298.549" transform="scale(1,1) translate(907.074,549.451)"><g transform="scale(1,1) translate(0,0)" fill="#B97034" stroke="#B97034" stroke-opacity="1" filter="url(#1c9ee17c-d694-4084-823e-26da7c67b3e7)"><path d="M 0 10 L 0 125.5 L 132.76 125.5 L 132.76 288.549" fill="none" stroke-width="1" stroke-dasharray="none"/><g><g stroke-dasharray="none"><path d="M-5,10L0,0L5,10z" stroke="none" fill-opacity="1"/></g><g stroke-dasharray="none"><path d="M137.76,288.549L132.76,298.549L127.76,288.549z" stroke="none" fill-opacity="1"/></g></g></g></g><g width="349.5" height="0" transform="scale(1,1) translate(99.667,139.167)"><g transform="scale(1,1) translate(0,0)" fill="#748C42" stroke="#748C42" stroke-opacity="1"><path d="M 0 0 L 333.5 0" fill="none" stroke-width="4" stroke-dasharray="4,4"/><g><g stroke-dasharray="none"><path d="M333.5,-8L349.5,0L333.5,8z" stroke="none" fill-opacity="1"/></g></g></g><g stroke-width="0" stroke-dasharray="none" fill="#FFFFFF" opacity="1" width="124.24" height="58.25" transform="scale(1,1) translate(112.63,-29.125)"><rect width="124.24" height="58.25"/></g><g width="122.23958587646484" height="56.250003814697266" transform="scale(1,1) translate(113.63,-28.125)"><text width="122.23958587646484" height="56.250003814697266" transform="scale(1,1) translate(0,0)" xml:space="preserve"><tspan xml:space="preserve" text-rendering="optimizeSpeed" style="font-family: Arial, Helvetica Neue, Helvetica, sans-serif;" font-size="25" font-weight="normal" font-style="normal" text-decoration="none" fill="#000000" opacity="1" x="15.955" text-anchor="start" y="22.917" textLength="90.32986450195312">Execute</tspan><tspan xml:space="preserve" text-rendering="optimizeSpeed" style="font-family: Arial, Helvetica Neue, Helvetica, sans-serif;" font-size="25" font-weight="normal" font-style="normal" text-decoration="none" fill="#000000" opacity="1" x="0" text-anchor="start" y="51.042" textLength="122.23958587646484">CAELMAG</tspan></text></g></g><g width="423.667" height="180" transform="scale(1,1) translate(981.844,546.611)"><g transform="scale(1,1) translate(0,0)" fill="#748C42" stroke="#748C42" stroke-opacity="1"><path d="M 0 0 A 103.5 102.5 0 0 1 103.5 102.5 A 160.083 102.5 0 0 0 263.583 205 A 160.083 25 0 0 0 411.715 189.478" fill="none" stroke-width="4" stroke-dasharray="4,4"/><g><g stroke-dasharray="none"><path d="M406.744,183.21L424.251,179.536L416.686,195.747z" stroke="none" fill-opacity="1"/></g></g></g><g stroke-width="0" stroke-dasharray="none" fill="#FFFFFF" opacity="1" width="43.667" height="30.125" transform="scale(1,1) translate(241.75,189.937)"><rect width="43.667" height="30.125"/></g><g width="41.66667175292969" height="205" transform="scale(1,1) translate(242.75,190.937)"><text width="41.66667175292969" height="28.125001907348633" transform="scale(1,1) translate(0,0)" xml:space="preserve"><tspan xml:space="preserve" text-rendering="optimizeSpeed" style="font-family: Arial, Helvetica Neue, Helvetica, sans-serif;" font-size="25" font-weight="normal" font-style="normal" text-decoration="none" fill="#000000" opacity="1" x="0" text-anchor="start" y="22.917" textLength="41.66667175292969">Exit</tspan></text></g></g><g width="223.333" height="75" transform="scale(1,1) translate(123.167,757)"><g fill="#748C42" stroke="#748C42" stroke-opacity="1" transform="scale(1,1) translate(0,0)"><path fill="none" stroke-width="4" stroke-dasharray="4,4" d="M111.667,0 L111.667,0 M111.667,0 L111.667,0 M111.667,0 L111.667,0 M111.667,0 L13.282,66.079 M111.667,0 L210.051,66.079"/><g><g stroke-dasharray="none"><path d="M17.743,72.72L0,75L8.822,59.438z" stroke="none" fill-opacity="1"/></g><g stroke-dasharray="none"><path d="M214.512,59.438L223.333,75L205.591,72.72z" stroke="none" fill-opacity="1"/></g></g></g></g><g width="194.667" height="76" transform="scale(1,1) translate(249.167,832)"><g stroke="#7F7F7F" stroke-opacity="1" stroke-width="1" stroke-dasharray="none" width="194.667" height="76" transform="scale(1,1) translate(0,0)" fill="#FADA7A" fill-opacity="1" filter="url(#a485d766-98ba-4879-8dd2-fe09544d64e6)"><rect width="194.667" height="76"/></g><g width="189.66666666666666" height="71" transform="scale(1,1) translate(2.5,2.5)"><text width="189.66666666666666" height="47.91667175292969" transform="scale(1,1) translate(0,11.541664123535156)" xml:space="preserve"><tspan xml:space="preserve" text-rendering="optimizeSpeed" style="font-family: Verdana, Geneva, sans-serif;" font-size="19.444444444444443" font-weight="normal" font-style="italic" text-decoration="none" fill="#000000" opacity="1" x="59.981" text-anchor="start" y="19.792" textLength="69.70487213134766">Manual</tspan><tspan xml:space="preserve" text-rendering="optimizeSpeed" style="font-family: Verdana, Geneva, sans-serif;" font-size="19.444444444444443" font-weight="normal" font-style="italic" text-decoration="none" fill="#000000" opacity="1" x="9.998" text-anchor="start" y="43.75" textLength="169.67015075683594">(semi-automatic)</tspan></text></g></g><g width="152" height="76" transform="scale(1,1) translate(47.167,832)"><g stroke="#7F7F7F" stroke-opacity="1" stroke-width="1" stroke-dasharray="none" width="152" height="76" transform="scale(1,1) translate(0,0)" fill="#FADA7A" fill-opacity="1" filter="url(#a485d766-98ba-4879-8dd2-fe09544d64e6)"><rect width="152" height="76"/></g><g width="147" height="71" transform="scale(1,1) translate(2.5,2.5)"><text width="147" height="23.958335876464844" transform="scale(1,1) translate(0,23.520832061767578)" xml:space="preserve"><tspan xml:space="preserve" text-rendering="optimizeSpeed" style="font-family: Verdana, Geneva, sans-serif;" font-size="19.444444444444443" font-weight="normal" font-style="italic" text-decoration="none" fill="#000000" opacity="1" x="24.108" text-anchor="start" y="19.792" textLength="98.78472900390625">Automatic</tspan></text></g></g><g width="150" height="75" transform="scale(1,1) translate(1137.5,256.167)"><g stroke="#7F7F7F" stroke-opacity="1" stroke-width="1" stroke-dasharray="none" width="150" height="75" transform="scale(1,1) translate(0,0)" fill="url(#ecf8334f-fbf0-403b-8b45-e8ddaeaef28d)" filter="url(#9b4099c5-c5f2-4998-8ce8-b09ebd48e599)"><linearGradient id="ecf8334f-fbf0-403b-8b45-e8ddaeaef28d" x1="75" y1="0" x2="75" y2="75" gradientUnits="userSpaceOnUse"><stop offset="0%" style="stop-color:#EDF0C9;stop-opacity:1;"/><stop offset="100%" style="stop-color:#98A9D9;stop-opacity:1;"/></linearGradient><rect width="150" height="75"/></g><g width="145" height="70" transform="scale(1,1) translate(2.5,2.5)"><text width="145" height="19.791667938232422" transform="scale(1,1) translate(0,25.10416603088379)" xml:space="preserve"><tspan xml:space="preserve" text-rendering="optimizeSpeed" style="font-family: Verdana, Geneva, sans-serif;" font-size="16.666666666666668" font-weight="bold" font-style="normal" text-decoration="none" fill="#000000" opacity="1" x="14.783" text-anchor="start" y="16.667" textLength="115.43403625488281">Study signal</tspan></text></g></g><g width="153.5" height="108.765" transform="scale(1,1) translate(984,293.667)"><g transform="scale(1,1) translate(0,0)" fill="#B97034" stroke="#B97034" stroke-opacity="1" filter="url(#1c9ee17c-d694-4084-823e-26da7c67b3e7)"><path d="M 10 108.765 L 65.333 108.765 L 65.333 0 L 143.5 0" fill="none" stroke-width="1" stroke-dasharray="none"/><g><g stroke-dasharray="none"><path d="M10,113.765L0,108.765L10,103.765z" stroke="none" fill-opacity="1"/></g><g stroke-dasharray="none"><path d="M143.5,-5L153.5,0L143.5,5z" stroke="none" fill-opacity="1"/></g></g></g></g></g></svg>