<?xml version="1.0" standalone="no"?><!DOCTYPE svg PUBLIC "-//W3C//DTD SVG 1.1//EN" "http://www.w3.org/Graphics/SVG/1.1/DTD/svg11.dtd"><svg xmlns="http://www.w3.org/2000/svg" version="1.1" width="1347.165" height="278.7" xmlns:xlink="http://www.w3.org/1999/xlink" xlink="http://www.w3.org/1999/xlink" style="position:relative;overflow:hidden;" viewBox="399.512 233.333 1347.165 278.7"><defs><filter id="5fd6377d-e2bc-4e52-8b8e-74c6181a0566" x="-0.25" y="-0.5" width="1.5" height="2"><feFlood flood-color="#000" flood-opacity="0.3" result="flood"/><feComposite in="flood" in2="SourceAlpha" operator="in" result="mask"/><feGaussianBlur in="mask" stdDeviation="2"/><feOffset dx="0.15000000000000002" dy="0.15000000000000002" result="oEffect0"/><feMerge><feMergeNode in="oEffect0"/><feMergeNode in="SourceGraphic"/></feMerge></filter><filter id="89825276-354e-4141-84bb-0e726f3b5253" x="-0.5" y="-0.5" width="2" height="2"><feFlood flood-color="#000" flood-opacity="0.3" result="flood"/><feComposite in="flood" in2="SourceAlpha" operator="in" result="mask"/><feGaussianBlur in="mask" stdDeviation="2"/><feOffset dx="0.1" dy="0.1" result="oEffect0"/><feMerge><feMergeNode in="oEffect0"/><feMergeNode in="SourceGraphic"/></feMerge></filter><filter id="29d90059-337a-41c3-893c-a7b7c911c097" x="-0.5" y="-0.5" width="2" height="2"><feMerge><feMergeNode in="SourceGraphic"/></feMerge></filter></defs><g><g width="163.899" height="104.5" transform="scale(1,1) translate(996.333,248.333)"><g stroke="#7F7F7F" stroke-opacity="1" stroke-width="6" stroke-dasharray="none" width="163.899" height="104.5" transform="scale(1,1) translate(0,0)" fill="url(#30099545-810a-48e8-8fd0-b45e3e5124b6)" filter="url(#29d90059-337a-41c3-893c-a7b7c911c097)"><linearGradient id="30099545-810a-48e8-8fd0-b45e3e5124b6" x1="81.9495" y1="0" x2="81.9495" y2="104.5" gradientUnits="userSpaceOnUse"><stop offset="0%" style="stop-color:#FFFFFF;stop-opacity:1;"/><stop offset="100%" style="stop-color:#D1DAE5;stop-opacity:1;"/></linearGradient><rect width="163.899" height="104.5"/></g><g width="157.89898125621653" height="98.5" transform="scale(1,1) translate(0,0)"><text width="157.89898125621653" height="47.91667175292969" transform="scale(1,1) translate(0,25.291664123535156)" xml:space="preserve"><tspan xml:space="preserve" text-rendering="optimizeSpeed" style="font-family: Verdana, Geneva, sans-serif;" font-size="19.444444444444443" font-weight="bold" font-style="normal" text-decoration="none" fill="#000000" opacity="1" x="26.884" text-anchor="start" y="19.792" textLength="104.1319580078125">CAELMAG</tspan><tspan xml:space="preserve" text-rendering="optimizeSpeed" style="font-family: Verdana, Geneva, sans-serif;" font-size="19.444444444444443" font-weight="bold" font-style="normal" text-decoration="none" fill="#000000" opacity="1" x="7.014" text-anchor="start" y="43.75" textLength="143.8715362548828">(Application)</tspan></text></g></g><g width="1230.309" height="66.5" transform="scale(1,1) translate(463.128,349.833)"><g fill="#7F7F7F" stroke="#7F7F7F" stroke-opacity="1" transform="scale(1,1) translate(0,0)" filter="url(#5fd6377d-e2bc-4e52-8b8e-74c6181a0566)"><path fill="none" stroke-width="3" stroke-dasharray="none" d="M0,33 L1230.309,33 M615.155,33 L615.155,0 M615.155,33 L615.155,33 M0,33 L0,66.5 M117.082,33 L117.082,66.5 M244.856,33 L244.856,66.5 M375.265,33 L375.265,66.5 M495.835,33 L495.835,66.5 M613.768,33 L613.768,66.5 M736.889,33 L736.889,66.5 M860.01,33 L860.01,66.5 M991.807,33 L991.807,66.5 M1123.603,33 L1123.603,66.5 M1230.309,33 L1230.309,66.5"/><g><g stroke-dasharray="none"><path d="M1225.309,28L1235.309,28L1235.309,38L1225.309,38z" stroke-width="0" fill="none"/></g></g></g></g><g width="13" height="13" transform="scale(1,1) translate(677.081,483.833)"><g fill="#7F7F7F" stroke="#7F7F7F" stroke-opacity="1" transform="scale(1,1) translate(0,0)" filter="url(#89825276-354e-4141-84bb-0e726f3b5253)"><path fill="none" stroke-width="1" stroke-dasharray="none" d="M0,0"/></g></g><g width="123.613" height="67.5" transform="scale(1,1) translate(646.177,416.333)"><g stroke="#40506A" stroke-opacity="1" stroke-width="1" stroke-dasharray="none" width="123.613" height="67.5" transform="scale(1,1) translate(0,0)" fill="#FFFFFF" fill-opacity="1"><rect width="123.613" height="67.5"/></g><g width="122.61339441851146" height="66.5" transform="scale(1,1) translate(0.5,0.5)"><text width="122.61339441851146" height="65.6250057220459" transform="scale(1,1) translate(0,0.4374971389770508)" xml:space="preserve"><tspan xml:space="preserve" text-rendering="optimizeSpeed" style="font-family: Times New Roman, Times New Roman, Times, Baskerville, Georgia, serif;" font-size="19.444444444444443" font-weight="bold" font-style="normal" text-decoration="none" fill="#000000" opacity="1" x="3.954" text-anchor="start" y="17.708" textLength="109.84375762939453">Environment</tspan><tspan xml:space="preserve" text-rendering="optimizeSpeed" style="font-family: Times New Roman, Times New Roman, Times, Baskerville, Georgia, serif;" font-size="19.444444444444443" font-weight="bold" font-style="normal" text-decoration="none" fill="#000000" opacity="1" x="43.199" text-anchor="start" y="39.583" textLength="31.354164123535156">and</tspan><tspan xml:space="preserve" text-rendering="optimizeSpeed" style="font-family: Times New Roman, Times New Roman, Times, Baskerville, Georgia, serif;" font-size="19.444444444444443" font-weight="bold" font-style="normal" text-decoration="none" fill="#000000" opacity="1" x="14.579" text-anchor="start" y="61.458" textLength="93.45486450195312">main menu</tspan></text></g></g><g width="13" height="13" transform="scale(1,1) translate(811.092,482.333)"><g fill="#7F7F7F" stroke="#7F7F7F" stroke-opacity="1" transform="scale(1,1) translate(0,0)" filter="url(#89825276-354e-4141-84bb-0e726f3b5253)"><path fill="none" stroke-width="1" stroke-dasharray="none" d="M0,0"/></g></g><g width="109.206" height="66" transform="scale(1,1) translate(783.791,416.333)"><g stroke="#40506A" stroke-opacity="1" stroke-width="1" stroke-dasharray="none" width="109.206" height="66" transform="scale(1,1) translate(0,0)" fill="#FFFFFF" fill-opacity="1"><rect width="109.206" height="66"/></g><g width="108.20618556701034" height="65" transform="scale(1,1) translate(0.5,0.5)"><text width="108.20618556701034" height="43.750003814697266" transform="scale(1,1) translate(0,10.624998092651367)" xml:space="preserve"><tspan xml:space="preserve" text-rendering="optimizeSpeed" style="font-family: Times New Roman, Times New Roman, Times, Baskerville, Georgia, serif;" font-size="19.444444444444443" font-weight="bold" font-style="normal" text-decoration="none" fill="#000000" opacity="1" x="16.013" text-anchor="start" y="17.708" textLength="71.31945037841797">Conduct</tspan><tspan xml:space="preserve" text-rendering="optimizeSpeed" style="font-family: Times New Roman, Times New Roman, Times, Baskerville, Georgia, serif;" font-size="19.444444444444443" font-weight="bold" font-style="normal" text-decoration="none" fill="#000000" opacity="1" x="7.133" text-anchor="start" y="39.583" textLength="93.94097137451172">experiment</tspan></text></g></g><g width="13" height="13" transform="scale(1,1) translate(932.98,482.333)"><g fill="#7F7F7F" stroke="#7F7F7F" stroke-opacity="1" transform="scale(1,1) translate(0,0)" filter="url(#89825276-354e-4141-84bb-0e726f3b5253)"><path fill="none" stroke-width="1" stroke-dasharray="none" d="M0,0"/></g></g><g width="103.933" height="66" transform="scale(1,1) translate(906.997,416.333)"><g stroke="#40506A" stroke-opacity="1" stroke-width="1" stroke-dasharray="none" width="103.933" height="66" transform="scale(1,1) translate(0,0)" fill="#FFFFFF" fill-opacity="1"><rect width="103.933" height="66"/></g><g width="102.93298969072166" height="65" transform="scale(1,1) translate(0.5,0.5)"><text width="102.93298969072166" height="43.750003814697266" transform="scale(1,1) translate(0,10.624998092651367)" xml:space="preserve"><tspan xml:space="preserve" text-rendering="optimizeSpeed" style="font-family: Times New Roman, Times New Roman, Times, Baskerville, Georgia, serif;" font-size="19.444444444444443" font-weight="bold" font-style="normal" text-decoration="none" fill="#000000" opacity="1" x="26.892" text-anchor="start" y="17.708" textLength="44.2881965637207">Pulse</tspan><tspan xml:space="preserve" text-rendering="optimizeSpeed" style="font-family: Times New Roman, Times New Roman, Times, Baskerville, Georgia, serif;" font-size="19.444444444444443" font-weight="bold" font-style="normal" text-decoration="none" fill="#000000" opacity="1" x="11.874" text-anchor="start" y="39.583" textLength="79.18403244018555">generator</tspan></text></g></g><g width="13" height="13" transform="scale(1,1) translate(1050.913,482.333)"><g fill="#7F7F7F" stroke="#7F7F7F" stroke-opacity="1" transform="scale(1,1) translate(0,0)" filter="url(#89825276-354e-4141-84bb-0e726f3b5253)"><path fill="none" stroke-width="1" stroke-dasharray="none" d="M0,0"/></g></g><g width="103.933" height="66" transform="scale(1,1) translate(1024.93,416.333)"><g stroke="#40506A" stroke-opacity="1" stroke-width="1" stroke-dasharray="none" width="103.933" height="66" transform="scale(1,1) translate(0,0)" fill="#FFFFFF" fill-opacity="1"><rect width="103.933" height="66"/></g><g width="102.93298969072166" height="65" transform="scale(1,1) translate(0.5,0.5)"><text width="102.93298969072166" height="43.750003814697266" transform="scale(1,1) translate(0,10.624998092651367)" xml:space="preserve"><tspan xml:space="preserve" text-rendering="optimizeSpeed" style="font-family: Times New Roman, Times New Roman, Times, Baskerville, Georgia, serif;" font-size="19.444444444444443" font-weight="bold" font-style="normal" text-decoration="none" fill="#000000" opacity="1" x="25.277" text-anchor="start" y="17.708" textLength="47.517364501953125">Delay</tspan><tspan xml:space="preserve" text-rendering="optimizeSpeed" style="font-family: Times New Roman, Times New Roman, Times, Baskerville, Georgia, serif;" font-size="19.444444444444443" font-weight="bold" font-style="normal" text-decoration="none" fill="#000000" opacity="1" x="11.874" text-anchor="start" y="39.583" textLength="79.18402481079102">generator</tspan></text></g></g><g width="13" height="13" transform="scale(1,1) translate(1171.44,482.333)"><g fill="#7F7F7F" stroke="#7F7F7F" stroke-opacity="1" transform="scale(1,1) translate(0,0)" filter="url(#89825276-354e-4141-84bb-0e726f3b5253)"><path fill="none" stroke-width="1" stroke-dasharray="none" d="M0,0"/></g></g><g width="114.309" height="66" transform="scale(1,1) translate(1142.863,416.333)"><g stroke="#40506A" stroke-opacity="1" stroke-width="1" stroke-dasharray="none" width="114.309" height="66" transform="scale(1,1) translate(0,0)" fill="#FFFFFF" fill-opacity="1"><rect width="114.309" height="66"/></g><g width="113.30927835051548" height="65" transform="scale(1,1) translate(0.5,0.5)"><text width="113.30927835051548" height="43.750003814697266" transform="scale(1,1) translate(0,10.624998092651367)" xml:space="preserve"><tspan xml:space="preserve" text-rendering="optimizeSpeed" style="font-family: Times New Roman, Times New Roman, Times, Baskerville, Georgia, serif;" font-size="19.444444444444443" font-weight="bold" font-style="normal" text-decoration="none" fill="#000000" opacity="1" x="20.743" text-anchor="start" y="17.708" textLength="66.96180725097656">Analyze</tspan><tspan xml:space="preserve" text-rendering="optimizeSpeed" style="font-family: Times New Roman, Times New Roman, Times, Baskerville, Georgia, serif;" font-size="19.444444444444443" font-weight="bold" font-style="normal" text-decoration="none" fill="#000000" opacity="1" x="9.684" text-anchor="start" y="39.583" textLength="93.94097900390625">experiment</tspan></text></g></g><g width="13" height="13" transform="scale(1,1) translate(1297.155,482.333)"><g fill="#7F7F7F" stroke="#7F7F7F" stroke-opacity="1" transform="scale(1,1) translate(0,0)" filter="url(#89825276-354e-4141-84bb-0e726f3b5253)"><path fill="none" stroke-width="1" stroke-dasharray="none" d="M0,0"/></g></g><g width="103.933" height="66" transform="scale(1,1) translate(1271.172,416.333)"><g stroke="#40506A" stroke-opacity="1" stroke-width="1" stroke-dasharray="none" width="103.933" height="66" transform="scale(1,1) translate(0,0)" fill="#FFFFFF" fill-opacity="1"><rect width="103.933" height="66"/></g><g width="102.93298969072166" height="65" transform="scale(1,1) translate(0.5,0.5)"><text width="102.93298969072166" height="43.750003814697266" transform="scale(1,1) translate(0,10.624998092651367)" xml:space="preserve"><tspan xml:space="preserve" text-rendering="optimizeSpeed" style="font-family: Times New Roman, Times New Roman, Times, Baskerville, Georgia, serif;" font-size="19.444444444444443" font-weight="bold" font-style="normal" text-decoration="none" fill="#000000" opacity="1" x="27.682" text-anchor="start" y="17.708" textLength="47.56945037841797">Study</tspan><tspan xml:space="preserve" text-rendering="optimizeSpeed" style="font-family: Times New Roman, Times New Roman, Times, Baskerville, Georgia, serif;" font-size="19.444444444444443" font-weight="bold" font-style="normal" text-decoration="none" fill="#000000" opacity="1" x="27.152" text-anchor="start" y="39.583" textLength="48.62847900390625">signal</tspan></text></g></g><g width="13" height="13" transform="scale(1,1) translate(1422.02,482.333)"><g fill="#7F7F7F" stroke="#7F7F7F" stroke-opacity="1" transform="scale(1,1) translate(0,0)" filter="url(#89825276-354e-4141-84bb-0e726f3b5253)"><path fill="none" stroke-width="1" stroke-dasharray="none" d="M0,0"/></g></g><g width="131.66" height="66" transform="scale(1,1) translate(1389.105,416.333)"><g stroke="#40506A" stroke-opacity="1" stroke-width="1" stroke-dasharray="none" width="131.66" height="66" transform="scale(1,1) translate(0,0)" fill="#FFFFFF" fill-opacity="1"><rect width="131.66" height="66"/></g><g width="130.65979381443302" height="65" transform="scale(1,1) translate(0.5,0.5)"><text width="130.65979381443302" height="43.750003814697266" transform="scale(1,1) translate(0,10.624998092651367)" xml:space="preserve"><tspan xml:space="preserve" text-rendering="optimizeSpeed" style="font-family: Times New Roman, Times New Roman, Times, Baskerville, Georgia, serif;" font-size="19.444444444444443" font-weight="bold" font-style="normal" text-decoration="none" fill="#000000" opacity="1" x="35.365" text-anchor="start" y="17.708" textLength="55.06945037841797">Access</tspan><tspan xml:space="preserve" text-rendering="optimizeSpeed" style="font-family: Times New Roman, Times New Roman, Times, Baskerville, Georgia, serif;" font-size="19.444444444444443" font-weight="bold" font-style="normal" text-decoration="none" fill="#000000" opacity="1" x="11.866" text-anchor="start" y="39.583" textLength="106.92708969116211">management</tspan></text></g></g><g width="13" height="13" transform="scale(1,1) translate(554.227,482.333)"><g fill="#7F7F7F" stroke="#7F7F7F" stroke-opacity="1" transform="scale(1,1) translate(0,0)" filter="url(#89825276-354e-4141-84bb-0e726f3b5253)"><path fill="none" stroke-width="1" stroke-dasharray="none" d="M0,0"/></g></g><g width="103.933" height="66" transform="scale(1,1) translate(528.244,416.333)"><g stroke="#40506A" stroke-opacity="1" stroke-width="1" stroke-dasharray="none" width="103.933" height="66" transform="scale(1,1) translate(0,0)" fill="#FFFFFF" fill-opacity="1"><rect width="103.933" height="66"/></g><g width="102.93298969072166" height="65" transform="scale(1,1) translate(0.5,0.5)"><text width="102.93298969072166" height="43.750003814697266" transform="scale(1,1) translate(0,10.624998092651367)" xml:space="preserve"><tspan xml:space="preserve" text-rendering="optimizeSpeed" style="font-family: Times New Roman, Times New Roman, Times, Baskerville, Georgia, serif;" font-size="19.444444444444443" font-weight="bold" font-style="normal" text-decoration="none" fill="#000000" opacity="1" x="11.961" text-anchor="start" y="17.708" textLength="74.1493148803711">Program</tspan><tspan xml:space="preserve" text-rendering="optimizeSpeed" style="font-family: Times New Roman, Times New Roman, Times, Baskerville, Georgia, serif;" font-size="19.444444444444443" font-weight="bold" font-style="normal" text-decoration="none" fill="#000000" opacity="1" x="28.255" text-anchor="start" y="39.583" textLength="46.423614501953125">series</tspan></text></g></g><g width="13" height="13" transform="scale(1,1) translate(437.57,482.333)"><g fill="#7F7F7F" stroke="#7F7F7F" stroke-opacity="1" transform="scale(1,1) translate(0,0)" filter="url(#89825276-354e-4141-84bb-0e726f3b5253)"><path fill="none" stroke-width="1" stroke-dasharray="none" d="M0,0"/></g></g><g width="102.232" height="66" transform="scale(1,1) translate(412.012,416.333)"><g stroke="#40506A" stroke-opacity="1" stroke-width="1" stroke-dasharray="none" width="102.232" height="66" transform="scale(1,1) translate(0,0)" fill="#FFFFFF" fill-opacity="1"><rect width="102.232" height="66"/></g><g width="101.2319587628866" height="65" transform="scale(1,1) translate(0.5,0.5)"><text width="101.2319587628866" height="43.750003814697266" transform="scale(1,1) translate(0,10.624998092651367)" xml:space="preserve"><tspan xml:space="preserve" text-rendering="optimizeSpeed" style="font-family: Times New Roman, Times New Roman, Times, Baskerville, Georgia, serif;" font-size="19.444444444444443" font-weight="bold" font-style="normal" text-decoration="none" fill="#000000" opacity="1" x="11.111" text-anchor="start" y="17.708" textLength="74.1493148803711">Program</tspan><tspan xml:space="preserve" text-rendering="optimizeSpeed" style="font-family: Times New Roman, Times New Roman, Times, Baskerville, Georgia, serif;" font-size="19.444444444444443" font-weight="bold" font-style="normal" text-decoration="none" fill="#000000" opacity="1" x="10.121" text-anchor="start" y="39.583" textLength="80.98959350585938">excitation</tspan></text></g></g><g width="13" height="13" transform="scale(1,1) translate(1560.748,482.333)"><g fill="#7F7F7F" stroke="#7F7F7F" stroke-opacity="1" transform="scale(1,1) translate(0,0)" filter="url(#89825276-354e-4141-84bb-0e726f3b5253)"><path fill="none" stroke-width="1" stroke-dasharray="none" d="M0,0"/></g></g><g width="103.933" height="66" transform="scale(1,1) translate(1534.765,416.333)"><g stroke="#40506A" stroke-opacity="1" stroke-width="1" stroke-dasharray="none" width="103.933" height="66" transform="scale(1,1) translate(0,0)" fill="#FFFFFF" fill-opacity="1"><rect width="103.933" height="66"/></g><g width="102.93298969072166" height="65" transform="scale(1,1) translate(0.5,0.5)"><text width="102.93298969072166" height="43.750003814697266" transform="scale(1,1) translate(0,10.624998092651367)" xml:space="preserve"><tspan xml:space="preserve" text-rendering="optimizeSpeed" style="font-family: Times New Roman, Times New Roman, Times, Baskerville, Georgia, serif;" font-size="19.444444444444443" font-weight="bold" font-style="normal" text-decoration="none" fill="#000000" opacity="1" x="11.597" text-anchor="start" y="17.708" textLength="74.87847900390625">Visualize</tspan><tspan xml:space="preserve" text-rendering="optimizeSpeed" style="font-family: Times New Roman, Times New Roman, Times, Baskerville, Georgia, serif;" font-size="19.444444444444443" font-weight="bold" font-style="normal" text-decoration="none" fill="#000000" opacity="1" x="7.725" text-anchor="start" y="39.583" textLength="87.4826431274414">laboratory</tspan></text></g></g><g width="13" height="13" transform="scale(1,1) translate(1673.068,482.333)"><g fill="#7F7F7F" stroke="#7F7F7F" stroke-opacity="1" transform="scale(1,1) translate(0,0)" filter="url(#89825276-354e-4141-84bb-0e726f3b5253)"><path fill="none" stroke-width="1" stroke-dasharray="none" d="M0,0"/></g></g><g width="81.479" height="66" transform="scale(1,1) translate(1652.698,416.333)"><g stroke="#40506A" stroke-opacity="1" stroke-width="1" stroke-dasharray="none" width="81.479" height="66" transform="scale(1,1) translate(0,0)" fill="#FFFFFF" fill-opacity="1"><rect width="81.479" height="66"/></g><g width="80.47938144329898" height="65" transform="scale(1,1) translate(0.5,0.5)"><text width="80.47938144329898" height="21.875001907348633" transform="scale(1,1) translate(0,21.562499046325684)" xml:space="preserve"><tspan xml:space="preserve" text-rendering="optimizeSpeed" style="font-family: Times New Roman, Times New Roman, Times, Baskerville, Georgia, serif;" font-size="19.444444444444443" font-weight="bold" font-style="normal" text-decoration="none" fill="#000000" opacity="1" x="20.257" text-anchor="start" y="17.708" textLength="39.96527862548828">Help</tspan></text></g></g></g></svg>