<?xml version="1.0" standalone="no"?><!DOCTYPE svg PUBLIC "-//W3C//DTD SVG 1.1//EN" "http://www.w3.org/Graphics/SVG/1.1/DTD/svg11.dtd"><svg xmlns="http://www.w3.org/2000/svg" version="1.1" width="1068.5" height="823.042" xmlns:xlink="http://www.w3.org/1999/xlink" xlink="http://www.w3.org/1999/xlink" style="position:relative;overflow:hidden;" viewBox="213.5 107.333 1068.5 823.042"><defs><filter id="924c96b5-b913-4971-8367-dc5b8c51b5f2" x="-0.5" y="-0.5" width="2" height="2"><feGaussianBlur in="SourceAlpha" stdDeviation="5"/><feOffset dx="5" dy="5"/><feComposite in2="SourceAlpha" operator="arithmetic" k2="-1" k3="1" result="shadowdiff"/><feFlood flood-color="black" flood-opacity="1"/><feComposite in2="shadowdiff" operator="in"/><feComposite in2="SourceGraphic" operator="over" result="sourceEffect"/><feMerge><feMergeNode in="sourceEffect"/></feMerge></filter><filter id="7d022362-fcd4-4ade-8f20-68670c357cce" x="-0.25" y="-0.25" width="1.5" height="1.5"><feGaussianBlur in="SourceAlpha" stdDeviation="5"/><feOffset dx="5" dy="5"/><feComposite in2="SourceAlpha" operator="arithmetic" k2="-1" k3="1" result="shadowdiff"/><feFlood flood-color="black" flood-opacity="1"/><feComposite in2="shadowdiff" operator="in"/><feComposite in2="SourceGraphic" operator="over" result="sourceEffect"/><feMerge><feMergeNode in="sourceEffect"/></feMerge></filter><filter id="b9ce9422-56cf-4278-87e7-df9764c16367" x="-0.5" y="-0.5" width="2" height="2"><feFlood flood-color="#000" flood-opacity="0.3" result="flood"/><feComposite in="flood" in2="SourceAlpha" operator="in" result="mask"/><feGaussianBlur in="mask" stdDeviation="2.5"/><feOffset dx="2.5" dy="2.5" result="oEffect0"/><feMerge><feMergeNode in="oEffect0"/><feMergeNode in="SourceGraphic"/></feMerge></filter><filter id="adb1c476-afb7-47dc-84d8-43cb429b2400" x="-0.25" y="-0.5" width="1.5" height="2"><feGaussianBlur in="SourceAlpha" stdDeviation="5"/><feOffset dx="5" dy="5"/><feComposite in2="SourceAlpha" operator="arithmetic" k2="-1" k3="1" result="shadowdiff"/><feFlood flood-color="black" flood-opacity="1"/><feComposite in2="shadowdiff" operator="in"/><feComposite in2="SourceGraphic" operator="over" result="sourceEffect"/><feMerge><feMergeNode in="sourceEffect"/></feMerge></filter></defs><g><g width="1043.5" height="675.333" transform="scale(1,1) translate(226,119.833)"><g transform="scale(1,1) translate(0,0)" stroke="#604B79" fill="#F6F7E4" fill-opacity="1" stroke-opacity="1" filter="url(#7d022362-fcd4-4ade-8f20-68670c357cce)"><path d="M337,0 L261.175,8.641 L230.466,17.282 L207.385,25.923 L188.334,34.564 L171.913,43.205 L157.4,51.846 L144.361,60.487 L132.516,69.128 L121.667,77.769 L111.67,86.41 L102.416,95.051 L93.82,103.692 L85.815,112.333 L78.346,120.974 L71.368,129.615 L64.842,138.256 L58.738,146.897 L53.027,155.538 L47.687,164.179 L42.697,172.821 L38.04,181.462 L33.701,190.103 L29.666,198.744 L25.923,207.385 L22.462,216.026 L19.273,224.667 L16.349,233.308 L13.682,241.949 L11.267,250.59 L9.096,259.231 L7.166,267.872 L5.473,276.513 L4.012,285.154 L2.781,293.795 L1.777,302.436 L0.999,311.077 L0.443,319.718 L0.111,328.359 L0,337 L0,338.333 L0.111,346.974 L0.443,355.615 L0.999,364.256 L1.777,372.897 L2.781,381.538 L4.012,390.179 L5.473,398.821 L7.166,407.462 L9.096,416.103 L11.267,424.744 L13.682,433.385 L16.349,442.026 L19.273,450.667 L22.462,459.308 L25.923,467.949 L29.666,476.59 L33.701,485.231 L38.04,493.872 L42.697,502.513 L47.687,511.154 L53.027,519.795 L58.738,528.436 L64.842,537.077 L71.368,545.718 L78.346,554.359 L85.815,563 L93.82,571.641 L102.416,580.282 L111.67,588.923 L121.667,597.564 L132.516,606.205 L144.361,614.846 L157.4,623.487 L171.913,632.128 L188.334,640.769 L207.385,649.41 L230.466,658.051 L261.175,666.692 L337,675.333 L706.5,675.333 L782.325,666.692 L813.034,658.051 L836.115,649.41 L855.166,640.769 L871.587,632.128 L886.1,623.487 L899.139,614.846 L910.984,606.205 L921.833,597.564 L931.83,588.923 L941.084,580.282 L949.68,571.641 L957.685,563 L965.154,554.359 L972.132,545.718 L978.658,537.077 L984.762,528.436 L990.473,519.795 L995.813,511.154 L1000.803,502.513 L1005.46,493.872 L1009.799,485.231 L1013.834,476.59 L1017.577,467.949 L1021.038,459.308 L1024.227,450.667 L1027.151,442.026 L1029.818,433.385 L1032.233,424.744 L1034.404,416.103 L1036.334,407.462 L1038.027,398.821 L1039.488,390.179 L1040.719,381.538 L1041.723,372.897 L1042.501,364.256 L1043.057,355.615 L1043.389,346.974 L1043.5,338.333 L1043.5,337 L1043.389,328.359 L1043.057,319.718 L1042.501,311.077 L1041.723,302.436 L1040.719,293.795 L1039.488,285.154 L1038.027,276.513 L1036.334,267.872 L1034.404,259.231 L1032.233,250.59 L1029.818,241.949 L1027.151,233.308 L1024.227,224.667 L1021.038,216.026 L1017.577,207.385 L1013.834,198.744 L1009.799,190.103 L1005.46,181.462 L1000.803,172.821 L995.813,164.179 L990.473,155.538 L984.762,146.897 L978.658,138.256 L972.132,129.615 L965.154,120.974 L957.685,112.333 L949.68,103.692 L941.084,95.051 L931.83,86.41 L921.833,77.769 L910.984,69.128 L899.139,60.487 L886.1,51.846 L871.587,43.205 L855.166,34.564 L836.115,25.923 L813.034,17.282 L782.325,8.641 L706.5,0 L337,0 z" stroke-width="1" stroke-dasharray="none"/></g></g><g width="291.333" height="463.5" transform="scale(1,1) translate(600.333,276.5)"><g transform="scale(1,1) translate(0,0)" stroke="#7F7F7F" fill="url(#9a9be4ac-1646-438c-86d4-3ee17f43b298)" stroke-opacity="1" filter="url(#b9ce9422-56cf-4278-87e7-df9764c16367)"><linearGradient id="9a9be4ac-1646-438c-86d4-3ee17f43b298" x1="145.66666666666666" y1="0" x2="145.66666666666666" y2="463.5" gradientUnits="userSpaceOnUse"><stop offset="0%" style="stop-color:#FFFFFF;stop-opacity:1;"/><stop offset="100%" style="stop-color:#52ACE1;stop-opacity:1;"/></linearGradient><path d="M0,58.267 a58.267,58.267 0 0,1 58.267,-58.267 l174.8,0 a58.267,58.267 0 0,1 58.267,58.267 l0,346.967 a58.267,58.267 0 0,1 -58.267,58.267 l-174.8,0 a58.267,58.267 0 0,1 -58.267,-58.267 z" stroke-width="1" stroke-dasharray="none"/></g></g><g width="3.798" height="449.917" transform="scale(1,1) translate(826.5,197.583)"><g transform="scale(1,1) translate(0,0)" fill="#748C42" stroke="#748C42" stroke-opacity="1"><path d="M 3.798 0 L 114.131 0 L 114.131 449.917 L 14 449.917" fill="none" stroke-width="3" stroke-dasharray="none"/><g><g stroke-dasharray="none"><path d="M14,456.917L0,449.917L14,442.917z" stroke="none" fill-opacity="1"/></g></g></g></g><g width="187.485" height="213.417" transform="scale(1,1) translate(826.5,452.75)"><g transform="scale(1,1) translate(0,0)" fill="#748C42" stroke="#748C42" stroke-opacity="1"><path d="M 14 213.417 L 126.667 213.417 L 126.667 0 L 187.485 0" fill="none" stroke-width="3" stroke-dasharray="none"/><g><g stroke-dasharray="none"><path d="M14,220.417L0,213.417L14,206.417z" stroke="none" fill-opacity="1"/></g></g></g></g><g width="188.5" height="82.167" transform="scale(1,1) translate(826.5,602.667)"><g transform="scale(1,1) translate(0,0)" fill="#748C42" stroke="#748C42" stroke-opacity="1"><path d="M 14 82.167 L 152.167 82.167 L 152.167 0 L 188.5 0" fill="none" stroke-width="3" stroke-dasharray="none"/><g><g stroke-dasharray="none"><path d="M14,89.167L0,82.167L14,75.167z" stroke="none" fill-opacity="1"/></g></g></g></g><g width="214.485" height="213.417" transform="scale(1,1) translate(462.681,452.75)"><g transform="scale(1,1) translate(0,0)" fill="#748C42" stroke="#748C42" stroke-opacity="1"><path d="M 0 0 L 50.167 0 L 50.167 213.417 L 200.485 213.417" fill="none" stroke-width="3" stroke-dasharray="none"/><g><g stroke-dasharray="none"><path d="M200.485,206.417L214.485,213.417L200.485,220.417z" stroke="none" fill-opacity="1"/></g></g></g></g><g width="215.5" height="82.167" transform="scale(1,1) translate(461.667,602.667)"><g transform="scale(1,1) translate(0,0)" fill="#748C42" stroke="#748C42" stroke-opacity="1"><path d="M 0 0 L 37.667 0 L 37.667 82.167 L 201.5 82.167" fill="none" stroke-width="3" stroke-dasharray="none"/><g><g stroke-dasharray="none"><path d="M201.5,75.167L215.5,82.167L201.5,89.167z" stroke="none" fill-opacity="1"/></g></g></g></g><g width="156.928" height="75" transform="scale(1,1) translate(673.369,160.083)"><g stroke="#7F7F7F" stroke-opacity="1" stroke-width="1" stroke-dasharray="none" width="156.928" height="75" transform="scale(1,1) translate(0,0)" fill="#E1C252" fill-opacity="1" filter="url(#924c96b5-b913-4971-8367-dc5b8c51b5f2)"><rect width="156.928" height="75"/></g><g width="151.92840646651274" height="70" transform="scale(1,1) translate(2.5,2.5)"><text width="151.92840646651274" height="18.750001907348633" transform="scale(1,1) translate(0,25.624999046325684)" xml:space="preserve"><tspan xml:space="preserve" text-rendering="optimizeSpeed" style="font-family: Verdana, Geneva, sans-serif;" font-size="15.277777777777779" font-weight="bold" font-style="normal" text-decoration="none" fill="#000000" opacity="1" x="56.173" text-anchor="start" y="15.625" textLength="39.583335876464844">User</tspan></text></g></g><g width="149.333" height="74.833" transform="scale(1,1) translate(677.167,628.833)"><g stroke="#7F7F7F" stroke-opacity="1" stroke-width="1" stroke-dasharray="none" width="149.333" height="74.833" transform="scale(1,1) translate(0,0)" fill="#E1C252" fill-opacity="1" filter="url(#924c96b5-b913-4971-8367-dc5b8c51b5f2)"><rect width="149.333" height="74.833"/></g><g width="144.33333333333331" height="69.83333333333333" transform="scale(1,1) translate(2.5,2.5)"><text width="144.33333333333331" height="18.750001907348633" transform="scale(1,1) translate(0,25.541665712992348)" xml:space="preserve"><tspan xml:space="preserve" text-rendering="optimizeSpeed" style="font-family: Verdana, Geneva, sans-serif;" font-size="15.277777777777779" font-weight="bold" font-style="normal" text-decoration="none" fill="#000000" opacity="1" x="46.125" text-anchor="start" y="15.625" textLength="52.083335876464844">Errors</tspan></text></g></g><g width="151" height="74.833" transform="scale(1,1) translate(676.333,467.833)"><g stroke="#7F7F7F" stroke-opacity="1" stroke-width="1" stroke-dasharray="none" width="151" height="74.833" transform="scale(1,1) translate(0,0)" fill="#E1C252" fill-opacity="1" filter="url(#924c96b5-b913-4971-8367-dc5b8c51b5f2)"><rect width="151" height="74.833"/></g><g width="146" height="69.83333333333333" transform="scale(1,1) translate(2.5,2.5)"><text width="146" height="18.750001907348633" transform="scale(1,1) translate(0,25.541665712992348)" xml:space="preserve"><tspan xml:space="preserve" text-rendering="optimizeSpeed" style="font-family: Verdana, Geneva, sans-serif;" font-size="15.277777777777779" font-weight="bold" font-style="normal" text-decoration="none" fill="#000000" opacity="1" x="30.812" text-anchor="start" y="15.625" textLength="84.37500762939453">Messages</tspan></text></g></g><g width="153.041" height="75" transform="scale(1,1) translate(675.313,305.333)"><g stroke="#7F7F7F" stroke-opacity="1" stroke-width="1" stroke-dasharray="none" width="153.041" height="75" transform="scale(1,1) translate(0,0)" fill="#E1C252" fill-opacity="1" filter="url(#924c96b5-b913-4971-8367-dc5b8c51b5f2)"><rect width="153.041" height="75"/></g><g width="148.04054054054052" height="70" transform="scale(1,1) translate(2.5,2.5)"><text width="148.04054054054052" height="18.750001907348633" transform="scale(1,1) translate(0,25.624999046325684)" xml:space="preserve"><tspan xml:space="preserve" text-rendering="optimizeSpeed" style="font-family: Verdana, Geneva, sans-serif;" font-size="15.277777777777779" font-weight="bold" font-style="normal" text-decoration="none" fill="#000000" opacity="1" x="20.374" text-anchor="start" y="15.625" textLength="107.29167175292969">Experiments</tspan></text></g></g><g width="152.196" height="75" transform="scale(1,1) translate(1013.985,396.5)"><g stroke="#7F7F7F" stroke-opacity="1" stroke-width="1" stroke-dasharray="none" width="152.196" height="75" transform="scale(1,1) translate(0,0)" fill="#E1C252" fill-opacity="1" filter="url(#924c96b5-b913-4971-8367-dc5b8c51b5f2)"><rect width="152.196" height="75"/></g><g width="147.19594594594594" height="70" transform="scale(1,1) translate(2.5,2.5)"><text width="147.19594594594594" height="18.750001907348633" transform="scale(1,1) translate(0,25.624999046325684)" xml:space="preserve"><tspan xml:space="preserve" text-rendering="optimizeSpeed" style="font-family: Verdana, Geneva, sans-serif;" font-size="15.277777777777779" font-weight="bold" font-style="normal" text-decoration="none" fill="#000000" opacity="1" x="22.556" text-anchor="start" y="15.625" textLength="102.08333587646484">Information</tspan></text></g></g><g width="150.167" height="74.833" transform="scale(1,1) translate(1015,546.667)"><g stroke="#7F7F7F" stroke-opacity="1" stroke-width="1" stroke-dasharray="none" width="150.167" height="74.833" transform="scale(1,1) translate(0,0)" fill="#E1C252" fill-opacity="1" filter="url(#924c96b5-b913-4971-8367-dc5b8c51b5f2)"><rect width="150.167" height="74.833"/></g><g width="145.16666666666666" height="69.83333333333333" transform="scale(1,1) translate(2.5,2.5)"><text width="145.16666666666666" height="18.750001907348633" transform="scale(1,1) translate(0,25.541665712992348)" xml:space="preserve"><tspan xml:space="preserve" text-rendering="optimizeSpeed" style="font-family: Verdana, Geneva, sans-serif;" font-size="15.277777777777779" font-weight="bold" font-style="normal" text-decoration="none" fill="#000000" opacity="1" x="53.312" text-anchor="start" y="15.625" textLength="38.54166793823242">DAQ</tspan></text></g></g><g width="150.167" height="74.833" transform="scale(1,1) translate(311.5,546.667)"><g stroke="#7F7F7F" stroke-opacity="1" stroke-width="1" stroke-dasharray="none" width="150.167" height="74.833" transform="scale(1,1) translate(0,0)" fill="#E1C252" fill-opacity="1" filter="url(#924c96b5-b913-4971-8367-dc5b8c51b5f2)"><rect width="150.167" height="74.833"/></g><g width="145.16666666666666" height="69.83333333333333" transform="scale(1,1) translate(2.5,2.5)"><text width="145.16666666666666" height="18.750001907348633" transform="scale(1,1) translate(0,25.541665712992348)" xml:space="preserve"><tspan xml:space="preserve" text-rendering="optimizeSpeed" style="font-family: Verdana, Geneva, sans-serif;" font-size="15.277777777777779" font-weight="bold" font-style="normal" text-decoration="none" fill="#000000" opacity="1" x="4.875" text-anchor="start" y="15.625" textLength="135.41668701171875">Pulse generator</tspan></text></g></g><g width="152.196" height="75" transform="scale(1,1) translate(310.485,396.5)"><g stroke="#7F7F7F" stroke-opacity="1" stroke-width="1" stroke-dasharray="none" width="152.196" height="75" transform="scale(1,1) translate(0,0)" fill="#E1C252" fill-opacity="1" filter="url(#924c96b5-b913-4971-8367-dc5b8c51b5f2)"><rect width="152.196" height="75"/></g><g width="147.19594594594594" height="70" transform="scale(1,1) translate(2.5,2.5)"><text width="147.19594594594594" height="18.750001907348633" transform="scale(1,1) translate(0,25.624999046325684)" xml:space="preserve"><tspan xml:space="preserve" text-rendering="optimizeSpeed" style="font-family: Verdana, Geneva, sans-serif;" font-size="15.277777777777779" font-weight="bold" font-style="normal" text-decoration="none" fill="#000000" opacity="1" x="4.848" text-anchor="start" y="15.625" textLength="137.50001525878906">Delay generator</tspan></text></g></g><g width="186.652" height="71.167" transform="scale(1,1) translate(827.333,434)"><g transform="scale(1,1) translate(0,0)" fill="#C0504D" stroke="#C0504D" stroke-opacity="1"><path d="M 14 71.167 L 88.833 71.167 L 88.833 0 L 172.652 0" fill="none" stroke-width="3" stroke-dasharray="none"/><g><g stroke-dasharray="none"><path d="M14,78.167L0,71.167L14,64.167z" stroke="none" fill-opacity="1"/></g><g stroke-dasharray="none"><path d="M172.652,-7L186.652,0L172.652,7z" stroke="none" fill-opacity="1"/></g></g></g></g><g width="187.667" height="60.167" transform="scale(1,1) translate(827.333,523.833)"><g transform="scale(1,1) translate(0,0)" fill="#C0504D" stroke="#C0504D" stroke-opacity="1"><path d="M 14 0 L 88.833 0 L 88.833 60.167 L 173.667 60.167" fill="none" stroke-width="3" stroke-dasharray="none"/><g><g stroke-dasharray="none"><path d="M14,7L0,0L14,-7z" stroke="none" fill-opacity="1"/></g><g stroke-dasharray="none"><path d="M173.667,53.167L187.667,60.167L173.667,67.167z" stroke="none" fill-opacity="1"/></g></g></g></g><g width="213.652" height="71.167" transform="scale(1,1) translate(462.681,434)"><g transform="scale(1,1) translate(0,0)" fill="#C0504D" stroke="#C0504D" stroke-opacity="1"><path d="M 14 0 L 93.5 0 L 93.5 71.167 L 199.652 71.167" fill="none" stroke-width="3" stroke-dasharray="none"/><g><g stroke-dasharray="none"><path d="M14,7L0,0L14,-7z" stroke="none" fill-opacity="1"/></g><g stroke-dasharray="none"><path d="M199.652,64.167L213.652,71.167L199.652,78.167z" stroke="none" fill-opacity="1"/></g></g></g></g><g width="214.667" height="60.167" transform="scale(1,1) translate(461.667,523.833)"><g transform="scale(1,1) translate(0,0)" fill="#C0504D" stroke="#C0504D" stroke-opacity="1"><path d="M 14 60.167 L 95.167 60.167 L 95.167 0 L 200.667 0" fill="none" stroke-width="3" stroke-dasharray="none"/><g><g stroke-dasharray="none"><path d="M14,67.167L0,60.167L14,53.167z" stroke="none" fill-opacity="1"/></g><g stroke-dasharray="none"><path d="M200.667,-7L214.667,0L200.667,7z" stroke="none" fill-opacity="1"/></g></g></g></g><g width="0" height="87.5" transform="scale(1,1) translate(751.833,380.333)"><g transform="scale(1,1) translate(0,0)" fill="#C0504D" stroke="#C0504D" stroke-opacity="1"><path d="M 0 14 L 0 73.5" fill="none" stroke-width="3" stroke-dasharray="none"/><g><g stroke-dasharray="none"><path d="M-7,14L0,0L7,14z" stroke="none" fill-opacity="1"/></g><g stroke-dasharray="none"><path d="M7,73.5L0,87.5L-7,73.5z" stroke="none" fill-opacity="1"/></g></g></g></g><g width="0" height="86.167" transform="scale(1,1) translate(751.833,542.667)"><g transform="scale(1,1) translate(0,0)" fill="#C0504D" stroke="#C0504D" stroke-opacity="1"><path d="M 0 14 L 0 72.167" fill="none" stroke-width="3" stroke-dasharray="none"/><g><g stroke-dasharray="none"><path d="M-7,14L0,0L7,14z" stroke="none" fill-opacity="1"/></g><g stroke-dasharray="none"><path d="M7,72.167L0,86.167L-7,72.167z" stroke="none" fill-opacity="1"/></g></g></g></g><g width="3" height="288.917" transform="scale(1,1) translate(673.369,197.583)"><g transform="scale(1,1) translate(0,0)" fill="#C0504D" stroke="#C0504D" stroke-opacity="1"><path d="M -14 0 L -97.333 0 L -97.333 288.917 L -11.036 288.917" fill="none" stroke-width="3" stroke-dasharray="none"/><g><g stroke-dasharray="none"><path d="M-14,-7L0,0L-14,7z" stroke="none" fill-opacity="1"/></g><g stroke-dasharray="none"><path d="M-11.036,281.917L2.964,288.917L-11.036,295.917z" stroke="none" fill-opacity="1"/></g></g></g></g><g width="931" height="76.375" transform="scale(1,1) translate(282.667,841.5)"><g stroke="#604B79" stroke-opacity="1" stroke-width="1" stroke-dasharray="none" width="931" height="76.375" transform="scale(1,1) translate(0,0)" fill="#E1C252" fill-opacity="1" filter="url(#adb1c476-afb7-47dc-84d8-43cb429b2400)"><rect width="931" height="76.375"/></g><g transform="scale(1,1) translate(0,0)" fill="#360D0C" opacity="1" stroke="#360D0C"><path d="M0.5,0.5 L113.833,0.5 L113.833,26.292 L0.5,26.292 z M113.833,0.5 L310.5,0.5 L310.5,26.292 L113.833,26.292 z M310.5,0.5 L423.833,0.5 L423.833,26.292 L310.5,26.292 z M423.833,0.5 L620.5,0.5 L620.5,26.292 L423.833,26.292 z M620.5,0.5 L733.833,0.5 L733.833,26.292 L620.5,26.292 z M733.833,0.5 L930.5,0.5 L930.5,26.292 L733.833,26.292 z" stroke-width="0" stroke-dasharray="none"/></g><g transform="scale(1,1) translate(0,0)" fill="#FBD585" opacity="1" stroke="#FBD585"><path d="M0.5,26.292 L113.833,26.292 L113.833,52.083 L0.5,52.083 z" stroke-width="0" stroke-dasharray="none"/></g><g transform="scale(1,1) translate(0,0)" fill="#FFFFFF" opacity="1" stroke="#FFFFFF"><path d="M113.833,26.292 L310.5,26.292 L310.5,52.083 L113.833,52.083 z M423.833,26.292 L620.5,26.292 L620.5,52.083 L423.833,52.083 z M733.833,26.292 L930.5,26.292 L930.5,52.083 L733.833,52.083 z M113.833,52.083 L310.5,52.083 L310.5,75.875 L113.833,75.875 z M423.833,52.083 L620.5,52.083 L620.5,75.875 L423.833,75.875 z M733.833,52.083 L930.5,52.083 L930.5,75.875 L733.833,75.875 z" stroke-width="0" stroke-dasharray="none"/></g><g transform="scale(1,1) translate(0,0)" fill="#C0504D" opacity="1" stroke="#C0504D"><path d="M310.5,26.292 L423.833,26.292 L423.833,52.083 L310.5,52.083 z" stroke-width="0" stroke-dasharray="none"/></g><g transform="scale(1,1) translate(0,0)" fill="#403251" opacity="1" stroke="#403251"><path d="M620.5,26.292 L733.833,26.292 L733.833,52.083 L620.5,52.083 z" stroke-width="0" stroke-dasharray="none"/></g><g transform="scale(1,1) translate(0,0)" fill="#F6F7E4" opacity="1" stroke="#F6F7E4"><path d="M0.5,52.083 L113.833,52.083 L113.833,75.875 L0.5,75.875 z" stroke-width="0" stroke-dasharray="none"/></g><g transform="scale(1,1) translate(0,0)" fill="#748C42" opacity="1" stroke="#748C42"><path d="M310.5,52.083 L423.833,52.083 L423.833,75.875 L310.5,75.875 z" stroke-width="0" stroke-dasharray="none"/></g><g transform="scale(1,1) translate(0,0)" fill="#4BACC6" opacity="1" stroke="#4BACC6"><path d="M620.5,52.083 L733.833,52.083 L733.833,75.875 L620.5,75.875 z" stroke-width="0" stroke-dasharray="none"/></g><g width="107.33333333333333" height="19.791667938232422" transform="scale(1,1) translate(2.5,2.5)"><text width="107.33333333333333" height="19.791667938232422" transform="scale(1,1) translate(0,0)" xml:space="preserve"><tspan xml:space="preserve" text-rendering="optimizeSpeed" style="font-family: Verdana, Geneva, sans-serif;" font-size="16.666666666666668" font-weight="normal" font-style="normal" text-decoration="none" fill="#FFFFFF" opacity="1" x="31.887" text-anchor="start" y="16.667" textLength="43.55903244018555">Color</tspan></text></g><g width="192.66666666666666" height="19.791667938232422" transform="scale(1,1) translate(115.833,2.5)"><text width="192.66666666666666" height="19.791667938232422" transform="scale(1,1) translate(0,0)" xml:space="preserve"><tspan xml:space="preserve" text-rendering="optimizeSpeed" style="font-family: Verdana, Geneva, sans-serif;" font-size="16.666666666666668" font-weight="normal" font-style="normal" text-decoration="none" fill="#FFFFFF" opacity="1" x="61.307" text-anchor="start" y="16.667" textLength="70.05208587646484">Meaning</tspan></text></g><g width="107.33333333333333" height="19.791667938232422" transform="scale(1,1) translate(312.5,2.5)"><text width="107.33333333333333" height="19.791667938232422" transform="scale(1,1) translate(0,0)" xml:space="preserve"><tspan xml:space="preserve" text-rendering="optimizeSpeed" style="font-family: Verdana, Geneva, sans-serif;" font-size="16.666666666666668" font-weight="normal" font-style="normal" text-decoration="none" fill="#FFFFFF" opacity="1" x="31.887" text-anchor="start" y="16.667" textLength="43.55903244018555">Color</tspan></text></g><g width="192.66666666666666" height="19.791667938232422" transform="scale(1,1) translate(425.833,2.5)"><text width="192.66666666666666" height="19.791667938232422" transform="scale(1,1) translate(0,0)" xml:space="preserve"><tspan xml:space="preserve" text-rendering="optimizeSpeed" style="font-family: Verdana, Geneva, sans-serif;" font-size="16.666666666666668" font-weight="normal" font-style="normal" text-decoration="none" fill="#FFFFFF" opacity="1" x="61.307" text-anchor="start" y="16.667" textLength="70.05208587646484">Meaning</tspan></text></g><g width="107.33333333333333" height="19.791667938232422" transform="scale(1,1) translate(622.5,2.5)"><text width="107.33333333333333" height="19.791667938232422" transform="scale(1,1) translate(0,0)" xml:space="preserve"><tspan xml:space="preserve" text-rendering="optimizeSpeed" style="font-family: Verdana, Geneva, sans-serif;" font-size="16.666666666666668" font-weight="normal" font-style="normal" text-decoration="none" fill="#FFFFFF" opacity="1" x="31.887" text-anchor="start" y="16.667" textLength="43.55903244018555">Color</tspan></text></g><g width="192.66666666666666" height="19.791667938232422" transform="scale(1,1) translate(735.833,2.5)"><text width="192.66666666666666" height="19.791667938232422" transform="scale(1,1) translate(0,0)" xml:space="preserve"><tspan xml:space="preserve" text-rendering="optimizeSpeed" style="font-family: Verdana, Geneva, sans-serif;" font-size="16.666666666666668" font-weight="normal" font-style="normal" text-decoration="none" fill="#FFFFFF" opacity="1" x="61.307" text-anchor="start" y="16.667" textLength="70.05208587646484">Meaning</tspan></text></g><g width="192.66666666666666" height="19.791667938232422" transform="scale(1,1) translate(115.833,28.292)"><text width="192.66666666666666" height="19.791667938232422" transform="scale(1,1) translate(0,0)" xml:space="preserve"><tspan xml:space="preserve" text-rendering="optimizeSpeed" style="font-family: Verdana, Geneva, sans-serif;" font-size="16.666666666666668" font-weight="bold" font-style="normal" text-decoration="none" fill="#000000" opacity="1" x="55.865" text-anchor="start" y="16.667" textLength="80.93750762939453">Manager</tspan></text></g><g width="192.66666666666666" height="19.791667938232422" transform="scale(1,1) translate(425.833,28.292)"><text width="192.66666666666666" height="19.791667938232422" transform="scale(1,1) translate(0,0)" xml:space="preserve"><tspan xml:space="preserve" text-rendering="optimizeSpeed" style="font-family: Verdana, Geneva, sans-serif;" font-size="16.666666666666668" font-weight="bold" font-style="normal" text-decoration="none" fill="#000000" opacity="1" x="51.125" text-anchor="start" y="16.667" textLength="90.41667175292969">Messages</tspan></text></g><g width="192.66666666666666" height="19.791667938232422" transform="scale(1,1) translate(735.833,28.292)"><text width="192.66666666666666" height="19.791667938232422" transform="scale(1,1) translate(0,0)" xml:space="preserve"><tspan xml:space="preserve" text-rendering="optimizeSpeed" style="font-family: Verdana, Geneva, sans-serif;" font-size="16.666666666666668" font-weight="bold" font-style="normal" text-decoration="none" fill="#000000" opacity="1" x="31.255" text-anchor="start" y="16.667" textLength="130.15626525878906">Acquired data</tspan></text></g><g width="192.66666666666666" height="19.791667938232422" transform="scale(1,1) translate(115.833,54.083)"><text width="192.66666666666666" height="19.791667938232422" transform="scale(1,1) translate(0,0)" xml:space="preserve"><tspan xml:space="preserve" text-rendering="optimizeSpeed" style="font-family: Verdana, Geneva, sans-serif;" font-size="16.666666666666668" font-weight="bold" font-style="normal" text-decoration="none" fill="#000000" opacity="1" x="21.229" text-anchor="start" y="16.667" textLength="150.20834350585938">Global variables</tspan></text></g><g width="192.66666666666666" height="19.791667938232422" transform="scale(1,1) translate(425.833,54.083)"><text width="192.66666666666666" height="19.791667938232422" transform="scale(1,1) translate(0,0)" xml:space="preserve"><tspan xml:space="preserve" text-rendering="optimizeSpeed" style="font-family: Verdana, Geneva, sans-serif;" font-size="16.666666666666668" font-weight="bold" font-style="normal" text-decoration="none" fill="#000000" opacity="1" x="48.903" text-anchor="start" y="16.667" textLength="94.86111450195312">Error data</tspan></text></g><g width="192.66666666666666" height="19.791667938232422" transform="scale(1,1) translate(735.833,54.083)"><text width="192.66666666666666" height="19.791667938232422" transform="scale(1,1) translate(0,0)" xml:space="preserve"><tspan xml:space="preserve" text-rendering="optimizeSpeed" style="font-family: Verdana, Geneva, sans-serif;" font-size="16.666666666666668" font-weight="bold" font-style="normal" text-decoration="none" fill="#000000" opacity="1" x="25.335" text-anchor="start" y="16.667" textLength="141.9965362548828">Core Controller</tspan></text></g><g transform="scale(1,1) translate(0,0)" fill="#360D0C" stroke="#360D0C" stroke-opacity="1"><path d="M0.5,25.292 L930.5,25.292" fill="none" stroke-width="2" stroke-dasharray="none"/><g><g stroke-dasharray="none"><path d="M-1.5,23.292L2.5,23.292L2.5,27.292L-1.5,27.292z" stroke-width="0" fill="none"/></g></g></g><g transform="scale(1,1) translate(0,0)" fill="#360D0C" stroke="#360D0C" stroke-opacity="1"><path d="M0.5,51.083 L930.5,51.083" fill="none" stroke-width="2" stroke-dasharray="none"/><g><g stroke-dasharray="none"><path d="M-1.5,49.083L2.5,49.083L2.5,53.083L-1.5,53.083z" stroke-width="0" fill="none"/></g></g></g><g transform="scale(1,1) translate(0,0)" fill="#360D0C" stroke="#360D0C" stroke-opacity="1"><path d="M112.833,0.5 L112.833,75.875" fill="none" stroke-width="2" stroke-dasharray="none"/><g><g stroke-dasharray="none"><path d="M110.833,-1.5L114.833,-1.5L114.833,2.5L110.833,2.5z" stroke-width="0" fill="none"/></g></g></g><g transform="scale(1,1) translate(0,0)" fill="#360D0C" stroke="#360D0C" stroke-opacity="1"><path d="M309.5,0.5 L309.5,75.875" fill="none" stroke-width="2" stroke-dasharray="none"/><g><g stroke-dasharray="none"><path d="M307.5,-1.5L311.5,-1.5L311.5,2.5L307.5,2.5z" stroke-width="0" fill="none"/></g></g></g><g transform="scale(1,1) translate(0,0)" fill="#360D0C" stroke="#360D0C" stroke-opacity="1"><path d="M422.833,0.5 L422.833,75.875" fill="none" stroke-width="2" stroke-dasharray="none"/><g><g stroke-dasharray="none"><path d="M420.833,-1.5L424.833,-1.5L424.833,2.5L420.833,2.5z" stroke-width="0" fill="none"/></g></g></g><g transform="scale(1,1) translate(0,0)" fill="#360D0C" stroke="#360D0C" stroke-opacity="1"><path d="M619.5,0.5 L619.5,75.875" fill="none" stroke-width="2" stroke-dasharray="none"/><g><g stroke-dasharray="none"><path d="M617.5,-1.5L621.5,-1.5L621.5,2.5L617.5,2.5z" stroke-width="0" fill="none"/></g></g></g><g transform="scale(1,1) translate(0,0)" fill="#360D0C" stroke="#360D0C" stroke-opacity="1"><path d="M732.833,0.5 L732.833,75.875" fill="none" stroke-width="2" stroke-dasharray="none"/><g><g stroke-dasharray="none"><path d="M730.833,-1.5L734.833,-1.5L734.833,2.5L730.833,2.5z" stroke-width="0" fill="none"/></g></g></g><g stroke="white" fill="none" stroke-opacity="0" stroke-width="3" stroke-dasharray="none" width="3" height="75.375" transform="scale(1,1) translate(3.5,0.5)"><rect width="3" height="75.375"/></g><g stroke="white" fill="none" stroke-opacity="0" stroke-width="3" stroke-dasharray="none" width="930" height="3" transform="scale(1,1) translate(0.5,3.5)"><rect width="930" height="3"/></g></g><g width="70.521" height="23.958" transform="scale(1,1) translate(724.333,815)"><g stroke="#000000" stroke-opacity="1" stroke-width="0" stroke-dasharray="none" width="70.521" height="23.958" transform="scale(1,1) translate(0,0)" fill="none"><rect width="70.521" height="23.958"/></g><g width="70.52083587646484" height="23.958335876464844" transform="scale(1,1) translate(0,0)"><text width="70.52083587646484" height="23.958335876464844" transform="scale(1,1) translate(0,0)" xml:space="preserve"><tspan xml:space="preserve" text-rendering="optimizeSpeed" style="font-family: Verdana, Geneva, sans-serif;" font-size="19.444444444444443" font-weight="normal" font-style="normal" text-decoration="none" fill="#000000" opacity="1" x="0" text-anchor="start" y="19.792" textLength="70.52083587646484">Legend</tspan></text></g></g><g width="184.702" height="386.5" transform="scale(1,1) translate(830.298,178.833)"><g transform="scale(1,1) translate(0,0)" fill="#604B79" stroke="#604B79" stroke-opacity="1"><path d="M 14 0 L 149.333 0 L 149.333 386.5 L 184.702 386.5" fill="none" stroke-width="3" stroke-dasharray="none"/><g><g stroke-dasharray="none"><path d="M14,7L0,0L14,-7z" stroke="none" fill-opacity="1"/></g></g></g></g></g></svg>